<?xml version="1.0" encoding="UTF-8" standalone="no"?>
<svg
   xml:space="preserve"
   width="250"
   height="133"
   x="0px"
   y="0px"
   version="1.1"
   viewBox="0.5 0.247 250 133"
   id="svg1"
   xmlns="http://www.w3.org/2000/svg"
   xmlns:svg="http://www.w3.org/2000/svg"><defs
     id="defs1" /><path
     fill="#1e1c59"
     d="m 240.215,56.456 c -0.149,-6.258 -3.265,-12.244 -8.598,-15.047 a 373.464,373.464 0 0 0 6.027,-9.55 c 2.014,4.067 4.992,8.462 4.992,14.243 0.001,3.674 -0.856,7.279 -2.421,10.354 m -5.156,6.244 c -2.258,1.646 -4.938,2.612 -7.944,2.612 -4.014,0 -7.429,-1.646 -9.551,-4.489 4.027,-4.897 8.013,-10.395 11.769,-15.972 4.381,2.462 6.162,8.148 6.162,13.291 -0.001,1.592 -0.137,3.117 -0.436,4.558 m -19.455,-6.176 c -0.218,-0.966 -0.327,-2 -0.327,-3.075 0,-5.455 3.878,-9.85 9.007,-9.85 0.341,0 0.681,0.012 0.993,0.039 -3.266,4.626 -6.53,9.021 -9.674,12.884 m -59.818,24.665 c -1.756,0 -2.558,-1.428 -2.558,-4.039 0,-8.449 7.509,-26.163 19.563,-36.57 1.333,2.204 1.932,5.007 1.945,7.932 0.05,13.958 -12.733,32.677 -18.95,32.677 m -47.793,10.367 c -1.701,0 -2.558,-1.469 -2.558,-3.973 0,-10.91 18.529,-46.595 27.849,-46.595 1.755,0 2.558,1.469 2.558,4.026 0,11.021 -18.421,46.542 -27.849,46.542 M 80.974,54.277 c -2.272,-2.462 -4.748,-4.462 -7.306,-6.013 6.34,-13.033 13.374,-25.346 22.176,-34.732 2.993,3.088 4.612,7.306 4.612,12.353 -0.001,12.543 -8.272,23.549 -19.482,28.392 m -35.073,60.595 c -2.449,0 -4.68,-0.326 -6.68,-0.912 10.979,-12.351 19.155,-32.133 28.093,-51.995 3.755,0.122 7.36,-0.34 10.557,-0.911 1.782,3.769 2.884,8.379 2.884,13.864 0.001,17.943 -13.196,39.954 -34.854,39.954 M 31.276,109.54 c -3.523,-3.307 -5.265,-7.578 -5.224,-11.129 0.03,-1.77 0.503,-3.4 1.265,-4.816 1.129,2.477 3.877,4.354 7.21,4.354 a 9.575,9.575 0 0 0 3.646,-0.734 c -2.258,4.61 -4.53,8.775 -6.897,12.325 M 54.934,50.551 c 0,-2.408 2.912,-2.83 6.013,-2.462 a 227.826,227.826 0 0 0 -3.251,6.285 c -1.755,-1.089 -2.762,-2.436 -2.762,-3.823 m 16.584,2.231 a 23.542,23.542 0 0 1 3.36,3.429 30.646,30.646 0 0 1 -5.251,0.652 c 0.626,-1.36 1.252,-2.734 1.891,-4.081 m 168.33,-24.189 c 2.096,-2.395 3.401,-5.388 3.401,-7.592 0,-1.496 -0.871,-2.448 -2.272,-2.448 -2.326,0 -5.129,2.87 -5.129,7.196 0,0.612 0.079,1.211 0.191,1.81 -2.667,4.177 -5.442,8.408 -8.259,12.489 a 15.648,15.648 0 0 0 -3.034,-0.299 c -6.761,0 -13.727,5.074 -13.727,14.244 0,2.489 0.436,4.68 1.184,6.57 -5.795,6.599 -10.884,10.87 -14.326,10.87 -1.359,0 -2.176,-0.734 -2.176,-2.271 0,-1.646 0.803,-4.258 2.395,-7.89 l 19.876,-44.038 21.468,-2.53 2.436,-5.088 -20.774,0.68 3.604,-7.973 -8.053,1.007 -3.66,7.225 -29.059,0.938 -5.225,10.367 30.393,-3.578 -6.109,12.121 c -3.129,-1.401 -6.91,-2.203 -11.318,-2.203 -6.652,0 -12.829,1.646 -18.394,4.435 -2.517,-1.225 -5.36,-1.823 -8.258,-1.823 -7.021,0 -14.965,3.374 -21.427,9.292 -1.307,-4.026 -4.041,-6.448 -8.096,-6.448 -4.721,0 -9.74,2.476 -14.543,6.489 -2.871,-2.354 -7.034,-3.034 -11.4,-1.374 2.354,-4.395 3.646,-9.074 3.646,-13.728 0,-8.121 -3.809,-14.094 -10.761,-17.699 2.381,-1.932 4.884,-3.659 7.537,-5.143 C 109,1.426 108.388,0.95 107.571,0.501 A 68.169,68.169 0 0 0 97.762,5.439 C 93.382,4.038 88.158,3.331 82.185,3.331 c -27.74,0 -53.983,16.012 -53.983,35.793 0,8.734 4.938,11.85 9.822,11.85 4.558,0 9.02,-2.558 10.435,-5.659 -3.973,-0.816 -6.326,-4.258 -6.326,-8.625 0,-15.401 18.666,-28.883 37.821,-28.883 4.285,0 7.999,0.803 11.047,2.271 C 79.369,19.03 70.444,31.22 63.071,44.253 a 20.846,20.846 0 0 0 -3.102,-0.245 c -5.51,0 -9.482,2.367 -9.482,6.938 0,3.102 2.027,5.769 5.115,7.7 -4.544,9.483 -8.543,18.979 -12.366,27.618 -1.333,-2.625 -4.354,-4.34 -7.864,-4.34 -8.435,0 -14.774,7.428 -14.774,16.611 0,6 2.435,11.727 6.625,16.313 -3.959,4.42 -8.285,7.047 -13.346,7.168 a 8.839,8.839 0 0 1 -4.694,-1.184 c 3.959,-0.434 7.21,-3.373 7.115,-7.195 -0.099,-3.824 -3.278,-6.531 -7.646,-6.436 -5.347,0.123 -8.245,4.598 -8.149,8.516 0.164,7.266 6.326,11.074 14.367,10.885 6.952,-0.164 12.924,-2.641 18.244,-6.816 5.047,3.238 11.36,5.211 18.421,5.211 21.332,0 39.439,-18.176 39.439,-42.568 0,-9.701 -2.503,-17.374 -6.231,-23.25 6.925,-2.436 13.006,-6.326 17.74,-11.021 6.639,-6.584 11.578,-5.972 14.38,-4.189 -11.006,11.428 -19.944,29.861 -19.944,42.255 0,7.674 3.061,12.666 8.965,12.666 17.713,0 38.855,-34.148 38.596,-52.908 5.687,-6.3 13.292,-10.055 19.468,-10.055 1.17,0 2.231,0.137 3.197,0.396 -13.836,9.781 -22.461,26.515 -22.461,39.385 0,6.83 3.347,11.998 9.877,11.998 12.189,0 28.066,-18.979 28.066,-37.916 0,-5.809 -1.646,-10.189 -4.271,-13.264 4.258,-2.531 8.938,-4.068 13.957,-4.068 2.912,0 5.959,0.681 8.693,1.878 l -12.203,24.202 c -2.843,5.904 -3.945,10.285 -3.945,13.455 0,4.898 2.857,7.402 7.415,7.402 6.611,0 14.421,-6.15 22.202,-14.939 3.361,4.164 8.599,6.027 12.938,6.027 1.374,0 2.788,-0.137 4.218,-0.395 -3.279,4.135 -8.734,7.25 -16.734,9.25 l -105.938,26.488 c -16.094,4.014 -25.931,11.959 -21.183,27.17 3.673,-3.021 10.285,-5.973 27.373,-11.184 l 96.17,-29.318 c 14.067,-4.299 22.992,-14.379 26.801,-24.557 6.559,-3.169 12.381,-9.25 12.381,-17.699 -0.001,-9.319 -7.81,-14.884 -10.653,-21.645"
     id="path1" /></svg>
