<?xml version="1.0" encoding="UTF-8" standalone="no"?>
<svg
   version="1.1"
   viewBox="0 0 2120 580"
   id="svg31"
   width="424"
   height="116"
   xmlns="http://www.w3.org/2000/svg"
   xmlns:svg="http://www.w3.org/2000/svg">
  <defs
     id="defs31" />
  <path
     fill="#ffffff"
     d="m 208.48,281.03 a 0.79,0.79 0 0 0 0.61,-0.93 L 164.92,75 a 1.83,1.82 78.1 0 1 1.41,-2.18 L 301.49,44.67 q 3.58,-0.75 4.35,2.82 l 43.51,201.21 a 0.27,0.28 47.4 0 0 0.53,0.02 q 0.18,-0.55 0.26,-1.29 12.79,-119.49 25.41,-239.01 0.2,-1.85 0.69,-2.43 0.81,-0.96 2.02,-0.84 L 516.98,19.7 a 1.92,1.92 0 0 1 1.71,2.11 q -18.57,174.91 -37.14,350.2 -1.21,11.48 -5.94,22 -37.89,84.35 -76.35,168.2 a 2.25,2.26 18.2 0 1 -2.5,1.27 L 43.55,489.73 a 1.46,1.44 89.6 0 1 -1.12,-1.12 L 7.27,324.76 a 1.8,1.8 0 0 1 1.39,-2.14 z m 62.64,67.07 c 4.39,-25.4 -39.29,-36.57 -45.53,-10.84 -4.84,19.96 5.84,30.52 25.68,29.76 10.7,-0.42 18.14,-9.05 19.85,-18.92 z m 99.4575,16.2624 a 20.37,20.37 0 0 0 -12.0834,-26.1508 l -4.5986,-1.692 a 20.37,20.37 0 0 0 -26.1508,12.0834 l -1.6022,4.3546 a 20.37,20.37 0 0 0 12.0834,26.1508 l 4.5986,1.692 a 20.37,20.37 0 0 0 26.1508,-12.0834 z"
     id="path20"
     style="fill:#00ccbc;fill-opacity:1" />
  <circle
     fill="#ffffff"
     cx="1163.52"
     cy="192.42999"
     r="28.83"
     id="circle20"
     style="fill:#00ccbc;fill-opacity:1" />
  <path
     fill="#ffffff"
     d="m 699.43,425.8 c -92.43,-18.58 -88,-174.03 5.95,-183.25 q 36.18,-3.55 62.07,23.01 A 0.9,0.9 0 0 0 769,264.93 V 168 a 1,1 0 0 1 1,-1 h 43.77 a 0.98,0.98 0 0 1 0.98,0.98 q 0,101.7 0.01,203.77 c 0,16.27 3.73,32.89 7.44,48.9 q 0.72,3.1 -2.46,3.1 h -42.86 a 2.42,2.42 0 0 1 -2.37,-1.93 l -3.87,-18.9 a 1.07,1.07 0 0 0 -1.79,-0.55 c -18.61,18.24 -42.73,28.8 -69.42,23.43 z m 70.2189,-90.5757 a 46.46,45.19 0.4 0 0 -46.1434,-45.5132 46.46,45.19 0.4 0 0 -46.7744,44.8646 46.46,45.19 0.4 0 0 46.1434,45.5132 46.46,45.19 0.4 0 0 46.7744,-44.8646 z"
     id="path21"
     style="fill:#00ccbc;fill-opacity:1" />
  <rect
     fill="#ffffff"
     x="1054.01"
     y="166.99001"
     width="45.740002"
     height="256.73999"
     rx="1.42"
     id="rect21"
     style="fill:#00ccbc;fill-opacity:1"
     ry="1.42" />
  <path
     fill="#ffffff"
     d="m 1011.34,407.15 c -66.91,38.23 -162.44,22.18 -165.87,-70.7 -1.91,-51.74 35.24,-95.81 88.51,-94.91 62.6,1.06 100.09,51.9 88.4,112.23 a 1.18,1.18 0 0 1 -1.16,0.96 l -124.72,0.03 a 1.9,1.91 72.4 0 0 -1.56,3 c 23.03,32.69 68.05,25.68 98.54,10.11 a 1.99,1.99 0 0 1 2.72,0.96 l 15.98,35.76 a 2.01,2.01 0 0 1 -0.84,2.56 z M 891.76,318.34 c 0.77,0.05 1.97,0.5 2.68,0.49 q 31.69,-0.32 63.38,-0.32 c 4.53,-0.01 12.34,0.53 18.48,0.08 a 1.65,1.65 0 0 0 1.43,-2.2 q -6.44,-18.08 -23.77,-25.02 c -23.91,-9.58 -56.41,-2.92 -63.24,25.54 q -0.32,1.32 1.04,1.43 z"
     id="path22"
     style="fill:#00ccbc;fill-opacity:1" />
  <path
     fill="#ffffff"
     d="m 1558.99,407.75 c -49.56,28.76 -132.56,30.63 -157.98,-33.71 -27.75,-70.24 21.21,-145.11 100.21,-130.08 52.83,10.05 77.61,59.73 69.21,109.8 q -0.25,1.48 -1.75,1.48 l -125.09,0.24 a 1.58,1.58 0 0 0 -1.48,2.12 q 0.29,0.79 1.04,1.78 c 24.28,31.77 67.31,24.5 98.39,9.51 a 1.74,1.73 64.8 0 1 2.34,0.85 l 15.93,35.46 q 0.74,1.65 -0.82,2.55 z m -33.15,-89.93 c -3.35,-40.92 -85.08,-38.8 -86.19,0.04 a 0.79,0.8 0.7 0 0 0.8,0.83 l 84.83,-0.27 a 0.55,0.56 87.6 0 0 0.56,-0.6 z"
     id="path23"
     style="fill:#00ccbc;fill-opacity:1" />
  <path
     fill="#ffffff"
     d="m 1603.59,423.74 a 1.34,1.34 0 0 1 -1.34,-1.34 q 0.01,-63.95 -0.07,-128.4 c -0.02,-15.68 -3.64,-31.06 -6.94,-46.69 a 1.29,1.3 84 0 1 1.27,-1.56 h 43.97 q 1.51,0 1.82,1.47 l 4.02,18.96 a 0.59,0.59 0 0 0 1.03,0.25 c 21.68,-26.05 50.79,-30.37 80.61,-15.98 a 0.84,0.84 0 0 1 0.41,1.1 l -20.35,45.73 a 2.04,2.04 0 0 1 -2.73,1.01 c -15.46,-7.24 -47.87,-10.67 -55.77,10.53 q -1.48,3.99 -1.49,14.66 -0.06,49.59 -0.02,98.71 a 1.55,1.55 0 0 1 -1.55,1.55 z"
     id="path24"
     style="fill:#00ccbc;fill-opacity:1" />
  <path
     fill="#ffffff"
     d="m 1852,419.59 c -43.82,18.35 -96.36,3.07 -117.33,-41.77 -30.04,-64.23 11.19,-138.88 85.33,-135.52 55.28,2.5 88.68,47.02 85.95,99.76 -1.82,35.2 -21.4,63.9 -53.95,77.53 z m 10.0829,-85.5593 a 45.16,46.37 89 0 0 -47.1511,-44.3438 45.16,46.37 89 0 0 -45.5747,45.9624 45.16,46.37 89 0 0 47.1511,44.3438 45.16,46.37 89 0 0 45.5747,-45.9624 z"
     id="path25"
     style="fill:#00ccbc;fill-opacity:1" />
  <path
     fill="#ffffff"
     d="m 1984.08,420.69 c -58.08,-21.21 -73.56,-102.75 -34.61,-147.51 34.43,-39.57 101.49,-42.34 136.59,-2.01 37.3,42.85 29.86,117.15 -23.05,145.08 -24.25,12.81 -53.2,13.83 -78.93,4.44 z m 81.1382,-85.4151 a 46.4,45.19 0.5 0 0 -46.0038,-45.5932 46.4,45.19 0.5 0 0 -46.7926,44.7834 46.4,45.19 0.5 0 0 46.0038,45.5932 46.4,45.19 0.5 0 0 46.7926,-44.7834 z"
     id="path26"
     style="display:inline;fill:#00ccbc;fill-opacity:1" />
  <rect
     fill="#ffffff"
     x="1141"
     y="245.74001"
     width="45.759998"
     height="178"
     rx="1.74"
     id="rect26"
     style="fill:#00ccbc;fill-opacity:1"
     ry="1.74" />
  <path
     fill="#ffffff"
     d="m 1258.93,423.11 -47.61,-176.26 a 0.87,0.87 0 0 1 0.84,-1.1 h 47.63 a 0.87,0.87 0 0 1 0.84,0.66 l 34.1,139.99 a 0.87,0.87 0 0 0 1.69,0 l 34.14,-139.99 a 0.87,0.87 0 0 1 0.84,-0.66 h 48.09 a 0.87,0.87 0 0 1 0.84,1.1 l -47.47,176.26 a 0.87,0.87 0 0 1 -0.84,0.64 h -72.25 a 0.87,0.87 0 0 1 -0.84,-0.64 z"
     id="path27"
     style="fill:#00ccbc;fill-opacity:1" />
</svg>
