<?xml version="1.0" encoding="UTF-8" standalone="no"?>
<!-- Created with Inkscape (http://www.inkscape.org/) -->

<svg
   version="1.1"
   id="svg1"
   width="382.66348"
   height="127.84128"
   viewBox="0 0 382.66348 127.84128"
   xml:space="preserve"
   xmlns="http://www.w3.org/2000/svg"
   xmlns:svg="http://www.w3.org/2000/svg"><defs
     id="defs1" /><g
     id="g1"
     transform="translate(24.547786,60.523713)"><path
       style="fill:#f59d2c;fill-opacity:1"
       d="m 348.10202,-44.548618 c -2.9598,-0.94441 -5.09033,-3.937638 -5.09033,-7.151511 0,-3.240024 1.67274,-5.804817 4.60992,-7.06836 4.72029,-2.030613 10.05897,1.239044 10.43146,6.388714 0.16918,2.338866 -0.3404,3.904978 -1.79417,5.514133 -2.16945,2.40132 -5.19723,3.261385 -8.15688,2.317024 z"
       id="path19333" /><path
       style="fill:#bdcd31;fill-opacity:1"
       d="m 299.55569,-44.524368 c -3.1552,-1.019109 -5.23274,-3.87599 -5.21949,-7.177478 0.0242,-6.035331 6.4703,-9.675202 11.56081,-6.527982 2.85458,1.764853 4.30435,5.730763 3.25607,8.907101 -1.22364,3.707659 -5.83549,6.013425 -9.59739,4.798359 z"
       id="path19332" /><path
       style="fill:#215a99;fill-opacity:1"
       d="m 324.24169,-28.082052 c -5.89704,-1.781796 -7.59873,-9.083433 -3.04812,-13.078919 2.40846,-2.114657 5.38559,-2.534834 8.28212,-1.168896 1.90666,0.899136 2.77574,1.783946 3.65311,3.719224 2.15209,4.747009 -1.00005,10.140966 -6.24669,10.68937 -0.86153,0.09005 -2.04972,0.0177 -2.64042,-0.160779 z"
       id="path19331" /><path
       style="fill:#6ab34e;fill-opacity:1"
       d="m 349.63569,-11.64134 c -2.70348,-0.553399 -4.82378,-2.10053 -5.9772,-4.361434 -0.81463,-1.596794 -0.87411,-4.370734 -0.1314,-6.127869 2.19303,-5.188358 9.13791,-6.305015 12.77637,-2.054293 1.23589,1.443867 1.81223,3.104504 1.81223,5.221697 0,1.894317 -0.58904,3.300143 -2.06925,4.93856 -1.48801,1.647055 -4.51325,2.771754 -6.41075,2.383339 z"
       id="path19330" /><path
       style="fill:#6bbdb8;fill-opacity:1"
       d="m 323.07569,3.9814053 c -4.87375,-2.261332 -5.92263,-8.682633 -2.02804,-12.41583 1.44842,-1.388398 3.09151,-2.0162183 5.27673,-2.0162183 5.5435,0 9.07719,5.6578713 6.70947,10.74267633 -0.86602,1.85980997 -2.5663,3.40266397 -4.33329,3.93206597 -1.7899,0.536266 -4.16707,0.433699 -5.62487,-0.242694 z"
       id="path19329" /><path
       style="fill:#f59eab;fill-opacity:1"
       d="m 298.74261,20.169571 c -2.83516,-1.351181 -4.31184,-3.703604 -4.29989,-6.849936 0.0164,-4.3124217 3.18064,-7.4502777 7.51297,-7.4502777 3.15372,0 5.62343,1.629935 6.8738,4.5365047 2.70757,6.29391 -3.91555,12.704835 -10.08688,9.763709 z"
       id="path19328" /><path
       id="path19326"
       style="fill:#222547;fill-opacity:1"
       d="m 171.98047,-59.238281 c -15.74559,-0.01255 -16.07438,4.55e-4 -16.96094,0.65039 -0.49722,0.36451 -1.15517,1.156277 -1.46289,1.759766 -0.523,1.025712 -0.56055,3.48719 -0.56055,37.738281 0,40.884866 -0.15933,38.012911 2.20703,39.59375 0.9644,0.644259 1.48201,0.72461 4.57618,0.72461 3.75577,0 4.60778,-0.247673 6.01562,-1.753907 l 0.80078,-0.855468 0.0899,-14.0605472 0.0898,-14.0605469 7.21875,0.085937 7.2168,0.085937 L 188.73633,4.75 c 4.13844,7.743992 7.76263,14.3471 8.05273,14.673828 1.26788,1.427953 2.69888,1.805988 6.83399,1.804688 3.37997,-10e-4 4.08182,-0.09145 4.99218,-0.646485 1.37964,-0.841142 2.10506,-2.529216 1.70704,-3.970703 -0.26321,-0.953274 -15.04333,-28.603269 -15.77539,-29.511719 -0.20689,-0.256736 0.26475,-0.687731 1.55468,-1.417968 2.5227,-1.428114 6.43742,-5.405376 7.88672,-8.013672 5.05162,-9.091407 4.36662,-21.199312 -1.61914,-28.591797 -3.00265,-3.708305 -6.94058,-6.228027 -11.89648,-7.617188 -2.33803,-0.655356 -3.09263,-0.684995 -18.49219,-0.697265 z m -5.22461,12.261719 8.7207,0.123046 c 7.0645,0.09888 9.02778,0.2228 10.34571,0.658204 3.29459,1.08844 5.4896,3.198881 6.72656,6.464843 0.89953,2.375053 0.82565,7.666847 -0.14258,10.126953 -1.41559,3.59677 -3.75681,5.812421 -7.22852,6.84375 -1.21143,0.359879 -3.53477,0.46875 -10,0.46875 h -8.42187 v -12.341796 z" /><path
       style="fill:#222547;fill-opacity:1"
       d="m -22.353151,20.640037 c -0.60715,-0.325619 -1.382202,-1.135326 -1.732084,-1.809531 -0.721749,-1.390778 -0.76346,-0.496732 1.082438,-23.2011487 0.536588,-6.6000003 1.401619,-17.2560003 1.92229,-23.6800003 0.520671,-6.424 1.239853,-15.275181 1.598183,-19.669291 0.920329,-11.285773 1.036707,-11.4636 7.616719,-11.638435 4.5719084,-0.121478 5.9315544,0.159781 7.2067534,1.490802 0.87356,0.9118 17.1061506,38.094596 19.6291126,44.962957 l 1.156894,3.1494583 1.354048,-3.6277453 c 1.596944,-4.278506 18.195035,-42.955688 18.888144,-44.013507 1.01172,-1.544079 2.651795,-2.014239 7.026338,-2.014239 4.527257,0 5.946048,0.440818 6.9481,2.158773 0.724744,1.242529 0.761529,1.543984 1.864699,15.281227 0.890476,11.088684 1.434659,17.826173 3.815678,47.2417173 0.9829,12.1429097 0.968073,13.1245087 -0.218029,14.4351377 -1.13234,1.251221 -2.165523,1.523145 -5.787234,1.523145 -3.089435,0 -3.610992,-0.0825 -4.55859,-0.721087 C 43.164084,18.960844 43.332202,20.04283 41.279933,-6.3960187 40.252974,-19.626062 39.401047,-30.882643 39.38676,-31.410643 c -0.02364,-0.873561 -0.08402,-0.815935 -0.670593,0.64 -2.072614,5.144417 -15.552694,35.0531673 -16.189543,35.9203363 -1.026252,1.397403 -2.16453,1.932006 -4.657444,2.187413 -4.076144,0.417613 -6.770982,-0.372226 -8.2831946,-2.427749 -0.574815,-0.781337 -13.853362,-30.2884033 -15.61997,-34.7100893 l -0.890994,-2.230089 -0.202145,1.590089 c -0.11118,0.874549 -0.998774,11.958089 -1.972433,24.6300893 -1.6197174,21.0803507 -1.8304414,23.1624777 -2.4775234,24.4799997 -1.03402,2.105366 -2.152493,2.558888 -6.312227,2.559503 -2.6581,3.93e-4 -3.595831,-0.123303 -4.463844,-0.588823 z"
       id="path19325" /><path
       style="fill:#222547;fill-opacity:1"
       d="m 240.17956,22.041752 c -13.0297,-2.366958 -21.96673,-10.773538 -24.49961,-23.0454557 -0.55249,-2.676835 -0.59607,-4.784973 -0.59886,-28.9669393 -0.003,-25.463202 0.012,-26.104665 0.63287,-27.122924 1.162,-1.905832 2.26929,-2.314531 6.27441,-2.315879 3.16197,-0.0011 3.67225,0.07869 4.64,0.725182 2.32292,1.551814 2.20563,0.06345 2.21238,28.073621 0.007,27.5557333 0.015,27.6943053 1.91657,31.56676033 1.81882,3.70404397 6.04765,6.87002897 10.61439,7.94662897 2.68865,0.633845 8.83346,0.633679 11.31675,-3.07e-4 6.08035,-1.552318 10.13804,-5.389063 11.85609,-11.210506 0.50805,-1.72148 0.57909,-4.400225 0.74632,-28.1425763 0.17335,-24.610822 0.22075,-26.292925 0.76356,-27.092431 0.99256,-1.461958 2.33816,-1.8677 6.18962,-1.866372 3.91488,0.0014 5.03068,0.418121 6.20021,2.315879 0.6323,1.026016 0.64123,1.481311 0.55046,28.082924 -0.0914,26.7937173 -0.0987,27.0633173 -0.80143,29.60000033 -0.94679,3.41783697 -3.50305,8.49368297 -5.52708,10.97486967 -4.26556,5.228986 -10.41387,8.77741 -17.82558,10.28782 -3.77078,0.768437 -10.96295,0.861499 -14.66107,0.189705 z"
       id="path19324" /><path
       id="path19322"
       style="display:inline;fill:#222547;fill-opacity:1"
       d="m 103.875,-60.523438 c -7.017388,-0.0078 -8.226779,0.142344 -13.214844,1.63086 -8.115872,2.421902 -16.078147,8.094791 -20.832031,14.841797 -13.458386,19.100967 -8.549413,46.9953792 10.503906,59.679687 4.931865,3.283277 10.316666,5.45173 15.84375,6.38086 3.675617,0.61789 11.248459,0.611024 14.923829,-0.01367 8.63854,-1.468282 16.18944,-5.430895 22.17187,-11.636719 6.05409,-6.2801474 9.89708,-14.1821542 11.29102,-23.210937 0.65473,-4.240759 0.41503,-12.285217 -0.48242,-16.158204 -3.6177,-15.612346 -14.51676,-26.730381 -30.03711,-30.638672 -3.19848,-0.805432 -3.93367,-0.868 -10.16797,-0.875 z m -0.16016,12.957032 c 6.68531,0 11.98208,1.743984 16.83985,5.544922 4.81961,3.771091 8.31532,9.657721 9.61523,16.189453 0.65084,3.270285 0.62355,9.715675 -0.0566,12.980469 -2.16385,10.3860864 -9.01387,18.2471023 -18.55664,21.2929682 -3.29671,1.052246 -11.14067,1.2202701 -14.560546,0.3125 -12.889017,-3.4212695 -21.009029,-15.278204 -20.38086,-29.7636722 0.21092,-4.863815 0.989582,-8.024887 2.96875,-12.048828 2.583028,-5.251681 6.591856,-9.257164 11.8125,-11.804687 4.047906,-1.975263 7.36279,-2.703125 12.318356,-2.703125 z" /><path
       style="display:inline;fill:#222547;fill-opacity:1"
       d="m 49.975313,37.093007 c -0.208306,-0.250993 -0.333938,-1.078993 -0.279183,-1.84 l 0.09956,-1.38365 h 1.76 1.76 l 0.09955,1.38365 c 0.124721,1.733339 -0.331199,2.29635 -1.85955,2.29635 -0.660899,0 -1.372067,-0.205358 -1.580372,-0.45635 z"
       id="path19321" /><path
       style="fill:#222547;fill-opacity:1"
       d="m 342.58186,59.549017 c -0.0846,-0.22035 -0.11604,-6.08835 -0.07,-13.04 l 0.0838,-12.63966 1.4998,-0.09671 c 2.16944,-0.139887 2.22284,0.05269 2.11303,7.619978 l -0.0928,6.39739 1.32101,-3.3e-4 c 1.29796,-3.2e-4 1.36174,-0.0548 3.6554,-3.12033 1.28392,-1.716 2.48947,-3.22951 2.67899,-3.36337 0.18953,-0.13385 0.99131,-0.20585 1.78172,-0.16 1.06488,0.0618 1.46425,0.22624 1.54185,0.63495 0.0596,0.31395 -1.07229,2.08136 -2.62726,4.1024 l -2.73198,3.55083 3.18562,4.76319 c 1.98456,2.96734 3.11409,4.94959 2.9959,5.25759 -0.201,0.52379 -2.82623,0.7104 -3.51008,0.24951 -0.19186,-0.12931 -1.53845,-2.0711 -2.99242,-4.3151 l -2.64359,-4.08 -1.32758,-6.5e-4 -1.32758,-6.5e-4 0.0987,3.45066 c 0.0543,1.89787 -0.0502,3.84217 -0.23208,4.32066 -0.29311,0.77094 -0.49674,0.86998 -1.78873,0.86998 -0.87243,0 -1.51971,-0.1609 -1.61171,-0.40065 z"
       id="path19320" /><path
       style="fill:#222547;fill-opacity:1"
       d="m 330.42045,59.545017 c -0.0853,-0.22237 -0.11681,-4.43437 -0.07,-9.36 l 0.0852,-8.95566 h 1.6 1.6 l 0.0962,2.03706 0.0962,2.03705 0.90496,-1.42697 c 1.37387,-2.16636 4.08237,-3.54581 5.48654,-2.79432 0.52106,0.27887 0.63141,0.60888 0.55344,1.65516 -0.1075,1.44238 -0.42097,1.71497 -2.3253,2.02205 -1.66197,0.26799 -3.19975,1.89308 -3.84388,4.06212 -0.33325,1.12216 -0.48822,3.02732 -0.48822,6.00193 0,2.96283 -0.12293,4.48085 -0.384,4.74192 -0.51559,0.5156 -3.1117,0.49967 -3.31124,-0.0203 z"
       id="path19319" /><path
       style="fill:#222547;fill-opacity:1"
       d="m 283.9899,59.712307 c -0.48428,-0.32168 -5.95745,-17.17215 -5.8173,-17.90996 0.13709,-0.72168 2.84709,-1.00145 3.3749,-0.34842 0.3091,0.38243 4.05709,12.43147 4.30118,13.82742 0.0589,0.33661 1.09864,-2.57022 2.31063,-6.45962 1.21199,-3.8894 2.35679,-7.2248 2.544,-7.41201 0.3942,-0.3942 2.42692,-0.44839 3.00662,-0.0802 0.33485,0.2127 4.29073,12.16248 4.61569,13.94288 0.0605,0.3317 1.03,-2.4763 2.15437,-6.24 1.12436,-3.76371 2.17342,-7.0951 2.33125,-7.4031 0.35246,-0.6878 2.87921,-0.78517 3.42143,-0.13184 0.26936,0.32456 -0.3215,2.51184 -2.44203,9.04 -1.53855,4.73651 -2.91332,8.79184 -3.05504,9.01184 -0.15304,0.23756 -0.94883,0.4 -1.95961,0.4 -0.9726,0 -1.84304,-0.17141 -2.03121,-0.4 -0.18111,-0.22 -1.26506,-3.26624 -2.4088,-6.76943 l -2.07951,-6.36943 -2.19039,6.68943 -2.19039,6.68943 -1.76,0.083 c -0.968,0.0456 -1.9246,-0.0264 -2.12579,-0.16 z"
       id="path19318" /><path
       style="fill:#222547;fill-opacity:1"
       d="m 223.86186,59.548687 c -0.0846,-0.22035 -0.11604,-6.08835 -0.07,-13.04 l 0.0838,-12.63933 1.54486,-0.09855 c 0.86622,-0.05526 1.74527,0.06777 2.00106,0.280056 0.60207,0.49968 11.20049,15.886013 12.52742,18.186783 l 1.03333,1.79171 0.0867,-10.08 0.0867,-10.08 1.4284,-0.101741 c 1.07558,-0.07661 1.53006,0.03729 1.84,0.461161 0.59708,0.816567 0.59802,24.38331 0.001,25.19979 -0.31504,0.43084 -0.77273,0.53817 -1.96664,0.46116 l -1.55604,-0.10037 -5.56462,-8 c -3.06054,-4.4 -6.09955,-8.87935 -6.75336,-9.95411 l -1.18881,-1.954119 0.10513,9.3682 c 0.0725,6.46058 -0.005,9.57487 -0.25126,10.03411 -0.27989,0.52298 -0.66523,0.66592 -1.79517,0.66592 -0.85707,0 -1.50095,-0.16199 -1.59253,-0.40065 z"
       id="path19317" /><path
       style="fill:#222547;fill-opacity:1"
       d="m 194.10186,59.548687 c -0.0846,-0.22035 -0.11604,-6.08835 -0.07,-13.04 l 0.0838,-12.63933 1.38365,-0.09955 c 2.22823,-0.160323 2.29635,0.0024 2.29635,5.483681 v 4.825764 l 1.2,-1.14711 c 1.44645,-1.3827 2.11101,-1.74152 4.01616,-2.16847 1.82767,-0.40959 4.38209,0.033 5.73003,0.99282 1.9497,1.38831 2.30041,2.86186 2.43593,10.23462 0.14404,7.8371 0.0901,8.03762 -2.12232,7.89496 l -1.4998,-0.09671 -0.16,-6.73421 c -0.17932,-7.54756 -0.35141,-8.17931 -2.38056,-8.73959 -2.44811,-0.67595 -5.34287,0.75939 -6.54668,3.24613 -0.59352,1.22604 -0.67276,1.96455 -0.67276,6.26974 0,2.75196 -0.14445,5.14992 -0.33126,5.49897 -0.2521,0.47106 -0.67506,0.61896 -1.77004,0.61896 -0.85707,0 -1.50095,-0.16199 -1.59253,-0.40065 z"
       id="path19316" /><path
       style="fill:#222547;fill-opacity:1"
       d="m 112.11402,59.579687 c -0.30404,-0.30404 -0.39833,-3.32797 -0.39833,-12.77515 0,-13.840986 -0.11152,-13.207983 2.29635,-13.034735 l 1.38365,0.09956 0.0874,5.68 0.0874,5.68 h 6.71261 6.71262 l 0.005,-5.36 c 0.003,-2.948 0.12463,-5.548791 0.27096,-5.779536 0.17611,-0.277697 0.79653,-0.385884 1.8351,-0.32 l 1.56891,0.09954 0.0838,12.60269 c 0.0601,9.03676 -0.0189,12.72643 -0.27918,13.04 -0.4478,0.53957 -2.57769,0.57619 -3.10057,0.0533 -0.26819,-0.26819 -0.384,-2.00533 -0.384,-5.76 v -5.376 h -6.71262 -6.71261 l -0.0874,5.68 -0.0874,5.68 -1.44167,0.0943 c -0.84449,0.0553 -1.60666,-0.0707 -1.84,-0.304 z"
       id="path19315" /><path
       style="fill:#222547;fill-opacity:1"
       d="m 49.829922,59.443187 c -0.10683,-0.2784 -0.194237,-4.3536 -0.194237,-9.056 0,-6.2232 0.104497,-8.65433 0.384,-8.93383 0.2112,-0.2112 0.9024,-0.384 1.536,-0.384 0.6336,0 1.3248,0.1728 1.536,0.384 0.547384,0.54738 0.547384,17.56462 0,18.112 -0.584156,0.58416 -3.025814,0.4927 -3.261763,-0.12217 z"
       id="path19314" /><path
       style="fill:#222547;fill-opacity:1"
       d="m -4.3803146,59.565357 c -0.547384,-0.54738 -0.547384,-17.56462 0,-18.112 0.2112,-0.2112 0.926134,-0.384 1.588741,-0.384 1.49811,0 2.00591201,0.78832 1.782811,2.76767 l -0.157119,1.39395 0.88197201,-1.39072 c 1.35218699,-2.13218 4.06972799,-3.50403 5.46355599,-2.75808 0.521061,0.27887 0.631409,0.60888 0.553433,1.65516 -0.106776,1.43273 -0.426341,1.71671 -2.262113,2.01019 -1.657654,0.26501 -3.27548399,1.94723 -3.90215299,4.05745 -0.338742,1.14067 -0.493128,3.0249 -0.493128,6.01846 0,2.96283 -0.12292901,4.48085 -0.38400001,4.74192 -0.2112,0.2112 -0.9024,0.384 -1.536,0.384 -0.6336,0 -1.3248,-0.1728 -1.536,-0.384 z"
       id="path19313" /><path
       style="fill:#222547;fill-opacity:1"
       d="m -15.430981,59.736027 c -0.117334,-0.11734 -0.213334,-5.29727 -0.213334,-11.51097 V 36.927418 l -4.4,-0.08903 -4.4,-0.08903 v -1.44 -1.44 l 10.632823,-0.08431 10.6328234,-0.08431 0.201868,0.804305 c 0.111027,0.442378 0.111513,1.164315 0.00108,1.604315 l -0.200787,0.8 h -4.313904 -4.3139034 v 11.136 c 0,8.23467 -0.100046,11.23605 -0.384,11.52 -0.404767,0.40477 -2.878376,0.53496 -3.242666,0.170669 z"
       id="path19312" /><path
       style="fill:#222547;fill-opacity:1"
       d="m 273.22092,59.813487 c -1.80037,-0.4841 -3.27031,-1.75519 -4.09855,-3.54412 -0.5012,-1.08253 -0.59371,-2.10688 -0.59965,-6.64 l -0.007,-5.36 h -1.08576 c -1.14448,0 -1.47424,-0.39701 -1.47424,-1.77491 0,-0.81532 0.81254,-1.42509 1.89896,-1.42509 0.59939,0 0.66104,-0.19155 0.66104,-2.053828 0,-1.129605 0.0874,-2.281605 0.19424,-2.56 0.23595,-0.614874 2.6776,-0.706328 3.26176,-0.122172 0.22337,0.223373 0.384,1.294222 0.384,2.56 v 2.176 h 1.73714 c 1.91109,0 2.74286,0.52124 2.74286,1.71886 0,1.12602 -0.62913,1.48114 -2.624,1.48114 h -1.856 v 5.09545 c 0,5.00027 0.0153,5.11363 0.81929,6.06912 0.52146,0.61972 1.24851,1.05095 2,1.18627 0.64939,0.11694 1.36071,0.35547 1.58071,0.53007 0.56046,0.4448 0.49874,2.01464 -0.10286,2.61623 -0.59478,0.59478 -1.35589,0.6052 -3.43191,0.047 z"
       id="path19311" /><path
       style="fill:#222547;fill-opacity:1"
       d="m 188.30457,59.962937 c -1.73938,-0.41445 -3.10508,-1.42704 -4.10481,-3.04348 -0.95983,-1.55193 -0.96456,-1.58311 -1.0754,-7.0865 l -0.11133,-5.52771 -1.00867,-0.0979 c -0.89363,-0.0868 -1.02067,-0.22407 -1.11386,-1.20382 -0.11727,-1.23292 0.51823,-1.93412 1.75289,-1.93412 0.6834,0 0.73079,-0.14352 0.81884,-2.48 l 0.0935,-2.48005 h 1.6 1.6 l 0.0935,2.48 0.0935,2.48 h 1.68538 c 2.1708,0 2.85075,0.48476 2.71289,1.93412 l -0.10527,1.10588 -2.16,0.0946 -2.16,0.0946 0.002,4.38538 c 0.002,4.5536 0.30219,6.42815 1.14155,7.12475 0.2708,0.22475 1.16555,0.57956 1.98832,0.78847 1.31759,0.33455 1.5213,0.5038 1.70859,1.41955 0.16168,0.79052 0.0673,1.18507 -0.3938,1.64616 -0.63316,0.63317 -1.36005,0.70449 -3.05757,0.30002 z"
       id="path19310" /><path
       style="fill:#222547;fill-opacity:1"
       d="m 177.297,59.965937 c -1.60095,-0.4858 -2.28353,-1.04541 -2.88149,-2.36239 -0.55596,-1.2245 -0.60634,-2.23199 -0.61279,-12.255 -0.008,-12.227215 -0.10207,-11.750797 2.28932,-11.578735 l 1.38365,0.09954 0.16,10.91131 c 0.16947,11.5572 0.20616,11.81631 1.70324,12.02948 0.55481,0.079 0.71727,0.34824 0.79741,1.32154 0.16019,1.9454 -0.68137,2.48905 -2.83934,1.83424 z"
       id="path19309" /><path
       style="fill:#222547;fill-opacity:1"
       d="m 97.689865,59.951737 c -1.60438,-0.3795 -2.84453,-1.75165 -3.23697,-3.58151 -0.51427,-2.39799 -0.45035,-21.423819 0.0744,-22.14145 0.30995,-0.423868 0.76442,-0.537773 1.84,-0.461161 l 1.42839,0.101741 0.17876,11.04 c 0.0983,6.072 0.20633,11.07487 0.24,11.11748 0.0337,0.0426 0.60124,0.33082 1.26124,0.64046 0.960375,0.45055 1.219435,0.76255 1.297285,1.56238 0.16963,1.74264 -0.77217,2.26869 -3.083105,1.72206 z"
       id="path19308" /><path
       id="path19306"
       style="fill:#222547;fill-opacity:1"
       d="m 317.45117,40.675781 c -4.05184,-0.03044 -7.39462,1.904137 -9.1875,5.314453 -0.74959,1.425829 -0.86223,2.014824 -0.86523,4.519532 -0.003,2.592877 0.0906,3.049682 0.93945,4.582031 1.48438,2.679607 4.03236,4.560682 7.00781,5.175781 4.4535,0.920649 9.6371,-1.727585 11.41602,-5.832031 0.99757,-2.301668 1.01107,-5.547877 0.0312,-7.765625 -1.62351,-3.674686 -5.18866,-5.962941 -9.3418,-5.994141 z m 0.16992,3.300781 c 0.75306,0.01323 1.49208,0.155588 2.16211,0.435547 1.51148,0.63153 3.36858,2.76528 3.63282,4.173829 0.59962,3.196236 -0.38165,5.970594 -2.66211,7.533203 -2.23154,1.529068 -6.09657,1.039649 -7.98243,-1.011719 -2.31524,-2.518468 -2.18417,-7.210763 0.26563,-9.462891 1.2023,-1.105286 2.92725,-1.697076 4.58398,-1.667969 z" /><path
       id="path19304"
       style="fill:#222547;fill-opacity:1"
       d="m 256.95898,40.626953 c -2.63166,-0.03422 -5.34753,1.006725 -7.02734,2.919922 -1.80502,2.055798 -2.37209,3.722204 -2.37109,6.962891 0.001,2.498577 0.11418,3.094281 0.85351,4.5 0.84115,1.599298 2.69529,3.536801 4.15235,4.33789 0.41157,0.22629 1.54176,0.59243 2.50976,0.8125 2.83036,0.64348 6.53209,-0.06373 8.47266,-1.617187 0.84188,-0.67395 0.91777,-0.866362 0.64062,-1.644531 -0.53294,-1.496329 -1.1408,-1.632437 -3.05273,-0.679688 -4.24316,2.114458 -8.79288,0.155253 -9.72852,-4.189453 l -0.22265,-1.039063 h 6.52148 c 4.64555,0 6.63076,-0.111226 6.9043,-0.384765 0.2112,-0.2112 0.38379,-0.966888 0.38281,-1.679688 -0.004,-3.128197 -1.59779,-5.955982 -4.13086,-7.332031 -1.17074,-0.635982 -2.52581,-0.948872 -3.9043,-0.966797 z m -0.20507,3.046875 c 0.64158,-0.0025 1.28835,0.116825 1.90625,0.375 1.35785,0.56735 2.12986,1.607694 2.39257,3.226563 l 0.1875,1.154297 h -4.87695 -4.87695 l 0.20898,-0.88086 c 0.54817,-2.306615 2.76723,-3.865928 5.0586,-3.875 z" /><path
       id="path19302"
       style="fill:#222547;fill-opacity:1"
       d="m 162.3418,40.628906 c -1.27507,0.02997 -2.59747,0.271488 -3.86133,0.744141 -2.46186,0.920669 -2.80924,1.308624 -2.28906,2.564453 0.52576,1.269289 1.22908,1.429422 2.91601,0.664062 1.68145,-0.762889 4.41785,-0.849319 5.70899,-0.18164 0.50869,0.26305 1.06527,0.919152 1.26367,1.488281 0.70186,2.013348 0.67236,2.035759 -3.08008,2.455078 -5.50525,0.6152 -8.27919,2.424223 -8.64062,5.63086 -0.32206,2.857347 1.42781,5.359902 4.29687,6.144531 0.84623,0.23142 2.11631,0.342994 2.82031,0.246094 1.61902,-0.22293 3.83538,-1.488264 4.56055,-2.601563 l 0.55859,-0.855469 0.16016,1.429688 c 0.15594,1.394658 0.19149,1.435103 1.38281,1.533203 2.11019,0.17375 2.13677,0.08214 2.13477,-6.941406 -0.002,-6.591754 -0.18882,-7.918415 -1.36133,-9.658203 -1.1931,-1.770352 -3.76517,-2.728036 -6.57031,-2.66211 z m 4.18164,9.998047 -0.15625,1.394531 c -0.21287,1.888568 -1.09402,3.640852 -2.24024,4.457032 -1.05569,0.751719 -3.24258,1.063077 -4.29687,0.611328 -1.75395,-0.751559 -2.20435,-2.909822 -0.92383,-4.431641 0.87288,-1.037359 2.34347,-1.521725 5.57422,-1.833984 z" /><path
       id="path19300"
       style="fill:#222547;fill-opacity:1"
       d="m 145.04688,40.589844 c -3.67212,-0.07376 -7.00998,2.025941 -8.63086,5.566406 -0.99312,2.169268 -1.11085,5.756002 -0.26368,8.005859 1.11505,2.961277 4.11372,5.457112 7.31446,6.087891 1.91654,0.37754 1.8431,0.377867 3.94922,-0.0078 2.04934,-0.37528 4.79283,-1.690135 5.07812,-2.433594 0.25761,-0.67132 -0.70207,-2.339891 -1.3457,-2.337891 -0.30348,7.4e-4 -1.26113,0.361522 -2.12696,0.800781 -3.97929,2.018828 -8.70272,-0.05874 -9.36132,-4.117187 l -0.1875,-1.164063 h 6.41796 c 7.56139,0 7.60941,-0.01842 7.25782,-2.6875 -0.55662,-4.225545 -2.81807,-6.844442 -6.51172,-7.544922 -0.53423,-0.101314 -1.06526,-0.157431 -1.58984,-0.167968 z m -0.21876,3.042968 c 0.84595,-0.0079 1.687,0.221985 2.43946,0.728516 1.10304,0.742519 1.64499,1.597712 2.01562,3.1875 l 0.20508,0.88086 H 144.5 139.51172 l 0.21875,-0.720704 c 0.75183,-2.482524 2.93581,-4.055948 5.09765,-4.076172 z" /><path
       id="path19298"
       style="fill:#222547;fill-opacity:1"
       d="m 83.402344,40.640625 c -1.348018,-0.0034 -2.746163,0.233681 -4.056641,0.728516 -2.234198,0.843619 -2.723118,1.367239 -2.324219,2.486328 0.49782,1.396578 1.144003,1.569011 2.957032,0.789062 1.023929,-0.440479 2.278036,-0.695312 3.421875,-0.695312 1.568658,0 1.927455,0.122777 2.740234,0.935547 0.673329,0.673339 0.935547,1.246089 0.935547,2.042968 v 1.105469 l -2.480469,0.21875 c -5.553834,0.48916 -8.672631,2.21826 -9.298828,5.154297 -0.720098,3.376307 1.193858,6.178372 4.708984,6.894531 2.374598,0.4838 4.833086,-0.341995 6.427735,-2.158203 l 0.96289,-1.095703 v 1.091797 c 0,1.388288 0.596601,1.878803 2.136719,1.751953 l 1.222656,-0.101563 0.08984,-6.878906 c 0.09853,-7.569842 -0.09998,-8.725319 -1.775391,-10.330078 -1.316073,-1.260574 -3.421272,-1.933862 -5.667968,-1.939453 z M 86.609375,50.75 c 0.974798,-0.002 0.843133,0.400398 0.439453,2.152344 -0.390329,1.694018 -1.560547,3.339193 -2.853516,4.007812 -1.646008,0.851179 -3.711735,0.510025 -4.708984,-0.777344 -0.21441,-0.276779 -0.394391,-1.05075 -0.40039,-1.71875 -0.0186,-2.219387 1.567215,-3.13739 6.15039,-3.5625 0.601695,-0.05581 1.048114,-0.100889 1.373047,-0.101562 z" /><path
       style="fill:#222547;fill-opacity:1"
       d="m 64.165833,60.268767 c -3.283168,-0.67405 -5.950256,-2.71967 -7.205787,-5.52675 -1.022613,-2.28633 -1.057782,-6.13276 -0.07563,-8.27183 1.66839,-3.63365 5.102559,-5.79708 9.193568,-5.79167 2.405433,0.003 4.409154,0.56818 5.978844,1.68589 1.068346,0.76073 1.158454,1.27232 0.422054,2.39621 -0.643661,0.98235 -0.925365,0.9816 -3.051422,-0.008 -4.23998,-1.97382 -8.381393,-0.0291 -9.282353,4.35874 -1.198701,5.83792 4.417829,9.83488 9.823918,6.99111 2.027249,-1.06639 2.745122,-1.02542 3.298098,0.18823 0.477628,1.04828 0.50538,0.94565 -0.511438,1.89129 -1.738171,1.61651 -5.925698,2.63388 -8.589852,2.08691 z"
       id="path19297" /><path
       id="path19295"
       style="fill:#222547;fill-opacity:1"
       d="m 16.59375,40.646484 c -1.642122,-0.0081 -3.333578,0.306863 -4.695312,0.917969 -7.3419088,3.294857 -7.7613993,13.691784 -0.707032,17.53125 0.894311,0.48674 2.243258,1.005937 2.996094,1.154297 1.915681,0.37735 1.842532,0.37657 3.949219,-0.0059 4.464297,-0.81041 7.752651,-4.290589 8.316406,-8.802735 0.548049,-4.386445 -2.708604,-9.209822 -7.039063,-10.425781 -0.867961,-0.243716 -1.835039,-0.364271 -2.820312,-0.369141 z m -0.560547,3.34375 c 1.344554,-0.02048 2.780209,0.338258 3.794922,1.009766 3.579758,2.368968 3.569286,8.656282 -0.01953,11.03125 -1.686239,1.115899 -4.352364,1.312957 -6.185547,0.455078 -5.1948145,-2.431027 -4.7489047,-10.434324 0.681641,-12.226562 0.524379,-0.17306 1.117354,-0.26022 1.728515,-0.269532 z" /><path
       id="path19293"
       style="fill:#222547;fill-opacity:1"
       d="m 38.611328,40.669922 c -2.209739,0 -3.799635,0.602017 -5.30664,2.009766 l -0.949219,0.886718 v -0.865234 c 0,-1.131869 -0.539419,-1.63086 -1.759766,-1.63086 -0.545599,0 -1.165753,0.171613 -1.376953,0.382813 -0.28558,0.28558 -0.382812,3.593069 -0.382812,12.90625 -10e-7,6.887453 0.09556,12.618988 0.21289,12.736328 0.402075,0.40207 2.903933,0.219105 3.285156,-0.240234 0.259772,-0.31301 0.346377,-1.832756 0.279297,-4.908203 l -0.09766,-4.457032 0.804687,0.861328 c 3.76418,4.034846 11.056659,1.851554 12.902344,-3.863281 0.66002,-2.043618 0.690382,-5.736022 0.06445,-7.84375 -1.081327,-3.641226 -4.080467,-5.974609 -7.675781,-5.974609 z M 37.6875,43.984375 c 1.613663,0.03192 3.251187,0.853364 4.216797,2.3125 0.766083,1.157629 0.851562,1.579583 0.851562,4.212891 0,2.633307 -0.08548,3.055261 -0.851562,4.21289 -0.468294,0.70764 -1.354446,1.524897 -1.96875,1.816406 -3.796338,1.801479 -7.339844,-1.109111 -7.339844,-6.029296 0,-2.360938 0.962748,-4.68329 2.363281,-5.699219 0.800214,-0.580458 1.760318,-0.845323 2.728516,-0.826172 z" /></g></svg>
