<?xml version="1.0" encoding="UTF-8" standalone="no"?>
<svg
   width="437.25pt"
   height="129pt"
   viewBox="0 0 2251 662"
   version="1.1"
   id="svg55"
   xmlns="http://www.w3.org/2000/svg"
   xmlns:svg="http://www.w3.org/2000/svg">
  <defs
     id="defs55" />
  <g
     id="#ffffffff"
     style="display:inline;fill:#ffffff;fill-opacity:1">
    <path
       fill="#002147"
       opacity="1"
       d="M 174.09,23.4 C 218.51,5.47 267.68,-0.27 315.07,6.53 c 65.96,9.2 127.82,43.85 170.51,94.92 22.61,26.82 40.01,58.03 50.82,91.41 13.4,41.1 16.59,85.4 9.71,128.06 -6.11,38.18 -20.54,75.02 -42.09,107.13 -16.48,24.64 -37.06,46.51 -60.52,64.62 -2.02,1.57 -3.8,3.41 -5.58,5.24 -28.22,28.67 -65.35,48.13 -104.78,55.81 -5.05,1.03 -10.14,1.84 -15.23,2.58 1.67,7.12 4.09,14.04 6.86,20.81 -1.84,1.82 -3.68,3.66 -5.52,5.5 -4.97,-2.78 -11.94,-1.22 -14.53,4.04 -3.35,5.8 0.73,13.92 7.34,14.78 5.35,1.01 10.01,-2.54 13.36,-6.29 2.14,8.77 1.45,18.31 -2.95,26.29 -8.65,16.19 -24.59,27.3 -41.38,33.85 -2.41,0.78 -4.96,2.44 -7.51,1.23 -17.67,-6.15 -34.56,-17.17 -44.16,-33.61 -5,-8.27 -6.09,-18.39 -3.74,-27.69 3.35,4.17 8.74,7.53 14.25,6.01 5.82,-1.4 9.27,-8.47 6.69,-13.9 -2.18,-5.37 -9.11,-7.67 -14.16,-4.94 -1.99,-1.8 -3.88,-3.71 -5.77,-5.62 4.3,-7.39 8.32,-14.98 11.2,-23.05 -10.43,-2.04 -20.61,-5.14 -30.81,-8 -13.4,4.86 -28.32,5.7 -41.98,1.4 C 144.18,540.9 127.33,523.3 121.69,502.26 79.61,473.67 45.81,433.07 25.4,386.47 7.38,345.66 -0.27,300.38 3.15,255.91 6.69,208.26 23.23,161.68 50.42,122.4 80.78,78.25 124.34,43.32 174.09,23.4 m 68.77,-9.91 C 194.21,19.47 147.43,39.48 109.37,70.33 66.47,104.82 34.66,152.91 20.04,206 7.06,252.69 7.27,302.94 20.62,349.52 c 15.99,56.55 51.57,107.24 99.14,141.72 -1.19,-13.2 2.01,-26.61 8.68,-38.02 -3.23,-3.06 -6.33,-6.25 -9.27,-9.59 0.71,-0.52 1.42,-1.04 2.14,-1.55 3.04,2.65 6.34,4.99 9.67,7.29 6.81,-9.68 16.21,-17.46 27.02,-22.27 C 136.57,410.31 118.75,388.91 106.25,364.71 89.7,333.36 82.3,297.25 85.16,261.91 c 2.8,-37.43 17.18,-73.86 40.54,-103.23 24.65,-31.25 59.23,-54.56 97.53,-65.44 31.64,-9.05 65.61,-9.8 97.6,-2.1 32.44,7.76 62.71,24.24 86.88,47.23 20.52,19.42 36.71,43.42 46.9,69.79 10.83,27.85 14.85,58.28 11.82,87.99 -3.51,35.48 -17.41,69.79 -39.4,97.84 -23.48,30.12 -56.11,53.05 -92.53,64.63 -3.99,1.08 -7.51,3.52 -9.91,6.88 -6.18,8.55 -8.59,19.22 -9.59,29.56 39.99,9.02 82.69,7.31 121.27,-6.87 C 477.99,457.1 510.05,413.2 527,364.01 541.16,323.08 545.02,278.66 538.38,235.88 532.55,198.13 518.31,161.73 497.1,129.98 467.35,85.26 423.8,49.84 373.83,30.08 332.51,13.59 286.98,7.96 242.86,13.49 m 1.99,82.72 c -35.69,6.02 -69.36,23.14 -95.46,48.18 -27.59,26.24 -46.72,61.27 -53.6,98.74 -5.92,31.44 -3.4,64.43 7.36,94.57 11.73,33.37 33.38,63.12 61.43,84.67 1.03,0.69 2.11,1.95 3.5,1.32 10.75,-2.72 22.18,-2.71 32.87,0.3 17.23,4.67 32.31,16.81 40.38,32.76 37.01,7.22 76.24,2.6 110.52,-13.12 32.48,-14.75 60.41,-39.24 79.38,-69.44 22.43,-35.33 31.97,-78.53 26.69,-120.03 -3.66,-29.99 -15.01,-58.98 -32.58,-83.54 C 406.01,143.48 379.22,121.7 348.61,108.53 316.21,94.43 279.65,90.16 244.85,96.21 M 137.64,453.72 c 3.4,2.04 6.82,4.05 10.28,6 8.51,-11.63 22.68,-18.98 37.16,-18.58 6.99,-0.02 13.79,1.96 20.13,4.8 8.32,3.45 16.87,6.33 25.6,8.53 -10.23,-15.4 -28.33,-25.26 -46.86,-25.13 -18.23,-0.18 -36.05,9.37 -46.31,24.38 m 17.4,9.86 c 10.2,5.1 20.53,9.95 31.05,14.37 3.04,1.35 6.68,2.52 8.18,5.8 2.58,4.81 -0.34,11.47 -5.71,12.68 -3.96,1.22 -7.52,-1.42 -10.72,-3.34 -9.66,-6.28 -18.81,-13.31 -27.62,-20.73 -4.13,9.55 -3.56,20.95 1.07,30.22 4.34,8.71 12.28,14.98 20.73,19.45 24.34,13.3 51.19,21.73 78.5,26.22 21.57,3.62 43.62,3.3 65.27,0.61 22.75,-2.89 45.15,-9.21 65.66,-19.56 15.39,-7.67 29.57,-17.63 42.39,-29.06 -34.66,9.56 -71.55,10.46 -106.71,3.08 -36.84,-7.5 -71.44,-23.45 -103.3,-43.09 -7.34,-4.06 -14.23,-9.56 -22.75,-10.84 -13.45,-2.57 -27.92,3.19 -36.04,14.19 m -20.68,-4.71 c -5.66,10.74 -8,23.25 -6.09,35.28 2.57,18.38 14.96,34.94 31.77,42.74 10.8,5.21 23.17,6.42 34.92,4.43 -12.34,-5.3 -24.85,-10.54 -35.96,-18.2 -7.43,-5.34 -13.62,-12.64 -16.82,-21.28 -4.27,-11.2 -3.54,-24.03 1.46,-34.87 -3.08,-2.72 -6.13,-5.47 -9.28,-8.1 m 97.63,3.37 c 6.91,3.81 13.97,7.32 21.05,10.79 1.6,-2.21 3.41,-4.25 5.43,-6.07 -8.93,-0.92 -17.7,-2.9 -26.48,-4.72 m 45,5.51 c -6.58,-0.05 -13.15,3.07 -16.91,8.54 15.12,6.95 30.84,12.61 46.94,16.85 1.05,-10.45 3.85,-20.94 9.72,-29.77 -13.06,2.79 -26.4,4.28 -39.75,4.38 m -39.27,105.42 c 4.63,0.53 9.34,2.04 12.65,5.47 7.18,6.86 6.97,19.73 -0.48,26.3 -4.56,4.16 -11.14,5.15 -17.05,4.1 1.9,9 7.51,16.71 14.17,22.85 8.04,7.39 17.7,13.04 28.06,16.5 6.48,-1.26 12.46,-4.81 18.16,-8.13 11.35,-7.23 22.16,-17.56 24.96,-31.24 -6.38,1.28 -13.5,-0.34 -18,-5.22 -6.86,-7.07 -6.34,-19.9 1.31,-26.2 3.63,-3.18 8.54,-4.36 13.27,-4.37 -1.86,-5.25 -3.71,-10.52 -4.93,-15.96 -21.28,2.15 -42.84,1.79 -63.93,-1.99 -2.21,6.18 -4.97,12.16 -8.19,17.89 z"
       id="path1"
       style="fill:#ffffff;fill-opacity:1" />
    <path
       fill="#002147"
       opacity="1"
       d="m 223.7,29.62 c 2.69,-0.87 5.42,-1.62 8.16,-2.38 -2.07,10.61 -4.45,21.17 -6.35,31.8 1.37,6.17 3.47,12.15 5.11,18.26 -2.38,0.7 -4.77,1.41 -7.13,2.17 -1.84,-5.39 -3.15,-10.95 -4.8,-16.41 -0.43,-1.91 -1.98,-3.21 -3.24,-4.58 -5.79,-5.89 -11.39,-11.96 -17.2,-17.83 -0.83,-0.92 -1.84,-1.78 -2.23,-3 2.41,-0.79 4.86,-1.43 7.28,-2.19 5.55,5.58 10.91,11.35 16.4,16.99 1.3,-7.61 2.81,-15.19 4,-22.83 z"
       id="path2"
       style="fill:#ffffff;fill-opacity:1" />
    <path
       fill="#002147"
       opacity="1"
       d="m 337.53,33.71 c 9.17,-1.9 19.39,2.89 23.23,11.54 4.85,11 1.17,24.88 -7.87,32.61 -5.88,5.11 -14.69,6.1 -21.77,3.04 -7.56,-3.05 -12.54,-10.86 -12.77,-18.92 -0.74,-12.08 6.53,-25.84 19.18,-28.27 m 0.91,6.83 c -6.98,2.2 -10.88,9.44 -12.08,16.25 -1.16,6.11 0.35,13.44 5.89,16.98 5.27,3.66 12.96,2.31 16.95,-2.63 5,-6.06 7.58,-14.75 5.04,-22.38 -2.04,-6.34 -9.43,-10.25 -15.8,-8.22 z"
       id="path3"
       style="fill:#ffffff;fill-opacity:1" />
    <path
       fill="#002147"
       opacity="1"
       d="m 273.45,42.58 c 4.54,-1.87 9.88,2.71 8.64,7.49 -0.75,4.75 -7.24,6.97 -10.72,3.62 -3.76,-2.99 -2.52,-9.68 2.08,-11.11 z"
       id="path4"
       style="fill:#ffffff;fill-opacity:1" />
    <path
       fill="#002147"
       opacity="1"
       d="m 146.72,60.08 c 10.32,-5.35 20.63,-10.71 30.94,-16.08 0.99,1.95 1.98,3.9 2.96,5.85 -4.02,2.05 -8,4.15 -11.99,6.25 6.37,12.12 12.58,24.33 19.04,36.4 -2.23,1.27 -4.49,2.48 -6.76,3.66 -6.38,-12.18 -12.73,-24.38 -19.08,-36.58 -4.02,2.12 -8.04,4.24 -12.09,6.3 -1.01,-1.93 -2.02,-3.87 -3.02,-5.8 z"
       id="path5"
       style="fill:#ffffff;fill-opacity:1" />
    <path
       fill="#002147"
       opacity="1"
       d="m 369.58,94.78 c 8.03,-13.76 16.16,-27.45 24.25,-41.17 7.61,4.46 15.21,8.96 22.82,13.43 -1.11,1.88 -2.23,3.76 -3.34,5.64 -5.41,-3.24 -10.86,-6.4 -16.3,-9.6 -2.23,3.76 -4.4,7.57 -6.72,11.29 5.07,3.16 10.33,6.01 15.38,9.22 -1.11,1.78 -2.18,3.58 -3.24,5.38 -5.13,-2.98 -10.24,-5.99 -15.34,-9.02 -3.67,6.21 -7.33,12.43 -10.99,18.64 -2.16,-1.3 -4.33,-2.58 -6.52,-3.81 z"
       id="path6"
       style="fill:#ffffff;fill-opacity:1" />
    <path
       fill="#002147"
       opacity="1"
       d="m 120.53,78.57 c 2.07,-1.48 4.1,-3.01 6.16,-4.5 9.49,12.75 19.28,25.26 28.87,37.94 -2.02,1.54 -4.03,3.08 -6.03,4.64 -9.69,-12.68 -19.48,-25.28 -29,-38.08 z"
       id="path7"
       style="fill:#ffffff;fill-opacity:1" />
    <path
       fill="#002147"
       opacity="1"
       d="m 1349.55,85.69 c 14.58,-2.99 30.82,0.38 41.93,10.63 -2.11,2.86 -4.47,5.52 -6.64,8.34 -6.38,-4.63 -13.85,-8 -21.78,-8.53 -6.86,-0.52 -14.35,0.57 -19.75,5.14 -5.22,4.32 -7.02,12.04 -4.65,18.32 1.42,3.53 4.31,6.24 7.43,8.3 10.44,6.72 22.81,9.84 32.93,17.11 6.66,4.74 11.98,11.84 13.2,20.07 1.4,9.43 -0.99,19.65 -7.37,26.89 -4.62,5.36 -11.16,8.77 -18,10.31 -15.78,3.57 -33,-0.73 -45.47,-10.98 2.09,-3.06 4.2,-6.12 6.2,-9.25 8,4.94 16.83,9.18 26.36,9.8 6.28,0.22 13.04,-0.77 18.14,-4.74 5.7,-4.43 7.74,-12.31 6.59,-19.22 -1.07,-5.76 -5.46,-10.2 -10.17,-13.33 -11.29,-7.44 -25.12,-10.58 -35.36,-19.67 -10.39,-9.04 -11.15,-26.07 -3.29,-36.96 4.63,-6.48 12,-10.58 19.7,-12.23 z"
       id="path8"
       style="fill:#ffffff;fill-opacity:1" />
    <path
       fill="#002147"
       opacity="1"
       d="m 1782.07,85.1 c 12.02,-1.48 24.73,1.04 34.68,8.12 13.88,9.6 21.37,26.26 22.78,42.73 1.7,18.61 -2.58,38.87 -15.86,52.67 -14.8,15.73 -40.36,19.23 -59.2,9.02 -14.82,-7.81 -24.14,-23.5 -26.87,-39.71 -3.04,-18.25 -0.27,-38.29 10.91,-53.44 7.86,-10.78 20.33,-17.89 33.56,-19.39 m -3.66,12.45 c -6.82,1.78 -12.95,5.9 -17.29,11.43 -6.12,7.64 -9.06,17.35 -10.04,26.97 -1.05,10.68 -0.1,21.76 4.1,31.72 2.98,7.17 7.79,13.7 14.25,18.09 12.52,8.77 31.19,7.64 42.28,-3.01 7.16,-6.75 11,-16.3 12.74,-25.83 1.89,-11.21 1.75,-22.98 -1.88,-33.83 -2.67,-7.97 -7.49,-15.39 -14.39,-20.31 -8.46,-6.15 -19.74,-7.83 -29.77,-5.23 z"
       id="path9"
       style="fill:#ffffff;fill-opacity:1" />
    <path
       fill="#002147"
       opacity="1"
       d="m 692.95,86.8 c 4.53,-0.01 9.07,0.05 13.61,-0.07 0.27,26.08 -0.05,52.16 0.16,78.24 0.03,6.73 1.54,13.94 6.47,18.86 6.87,6.91 17.42,8.72 26.76,7.37 7.7,-1.07 15.1,-5.65 18.5,-12.8 2.53,-5.42 2.71,-11.55 2.9,-17.43 0.2,-24.74 -0.07,-49.48 0.15,-74.22 4.48,0.08 8.95,0.05 13.44,0.05 0,17.07 -0.01,34.13 0,51.2 -0.18,11.34 0.49,22.75 -0.99,34.03 -0.99,7.79 -4.08,15.56 -9.97,20.94 -8.45,8.04 -20.59,10.83 -31.97,10.4 -12.22,-0.33 -25.01,-5.15 -32.4,-15.29 -5.5,-7.46 -6.51,-17.06 -6.6,-26.05 -0.13,-25.08 -0.03,-50.15 -0.06,-75.23 z"
       id="path10"
       style="fill:#ffffff;fill-opacity:1" />
    <path
       fill="#002147"
       opacity="1"
       d="m 818.97,86.8 c 4.68,0 9.37,-0.01 14.06,0.02 18.44,31.3 36.64,62.76 55.28,93.94 0.08,-31.32 -0.21,-62.64 -0.26,-93.96 4.21,0.01 8.44,-0.05 12.67,0.08 -0.17,38.14 0.07,76.29 -0.13,114.43 -4.78,-0.1 -9.56,0.02 -14.33,-0.11 -18.24,-31.26 -36.58,-62.46 -55.03,-93.59 0.05,31.23 0.32,62.47 0.27,93.7 -4.18,-0.07 -8.36,-0.05 -12.53,-0.04 -0.01,-38.16 -0.01,-76.31 0,-114.47 z"
       id="path11"
       style="fill:#ffffff;fill-opacity:1" />
    <path
       fill="#002147"
       opacity="1"
       d="m 948.5,201.34 c -0.15,-38.19 -0.15,-76.39 0.01,-114.58 4.55,0.1 9.12,0.05 13.68,0.06 0.01,38.15 0.01,76.31 0,114.46 -4.56,0 -9.13,-0.05 -13.69,0.06 z"
       id="path12"
       style="fill:#ffffff;fill-opacity:1" />
    <path
       fill="#002147"
       opacity="1"
       d="m 992.61,86.8 c 4.78,0 9.57,0 14.35,0 11.16,33.69 22.25,67.4 33.44,101.08 11.41,-33.72 22.89,-67.42 34.41,-101.1 4.42,0.03 8.86,0.01 13.29,0.02 -13.4,38.15 -26.84,76.29 -40.21,114.45 -5.27,0.03 -10.55,0.02 -15.82,0.01 -13.13,-38.16 -26.32,-76.3 -39.46,-114.46 z"
       id="path13"
       style="fill:#ffffff;fill-opacity:1" />
    <path
       fill="#002147"
       opacity="1"
       d="m 1119.25,86.84 c 20.73,-0.09 41.46,0.08 62.2,-0.08 0.14,3.83 0.11,7.67 0.04,11.5 -16.23,-0.07 -32.47,0 -48.7,-0.04 -0.03,12.6 -0.01,25.19 -0.01,37.78 15.28,0.05 30.56,-0.11 45.85,0.08 -0.11,3.63 -0.11,7.26 0.01,10.89 -15.28,0.38 -30.57,0.07 -45.86,0.16 -0.04,14.11 0.06,28.22 -0.04,42.32 16.72,0.17 33.44,0.01 50.17,0.08 -0.02,3.92 -0.02,7.83 -0.01,11.74 -21.22,-0.01 -42.44,0.05 -63.66,-0.03 0.06,-38.13 0.04,-76.26 0.01,-114.4 z"
       id="path14"
       style="fill:#ffffff;fill-opacity:1" />
    <path
       fill="#002147"
       opacity="1"
       d="m 1219.29,201.19 c 0.23,-38.15 -0.12,-76.31 0.18,-114.47 12.51,0.24 25.03,-0.15 37.54,0.35 7.85,0.41 16.17,2.23 22.03,7.86 9.47,8.57 11.99,23.06 7.89,34.87 -3.45,9.71 -13.13,16.01 -23.04,17.48 6.85,0.95 11.56,6.65 14.28,12.59 6.48,13.68 12.43,27.59 18.63,41.4 -4.74,0.01 -9.47,-0.06 -14.2,0.06 -5.48,-11.65 -10.3,-23.61 -15.89,-35.22 -2.73,-5.47 -6.19,-11.53 -12.49,-13.32 -6.95,-1.84 -14.24,-1.16 -21.34,-1.32 -0.01,16.6 -0.01,33.2 -0.01,49.79 -4.53,-0.01 -9.06,0.06 -13.58,-0.07 M 1232.88,97.8 c -0.01,14.24 -0.01,28.49 0,42.73 8.69,-0.13 17.55,0.59 26.07,-1.58 5.42,-1.36 10.52,-4.65 13.33,-9.59 4.09,-6.99 3.84,-16.3 -0.54,-23.1 -3.7,-5.46 -10.41,-7.94 -16.78,-8.27 -7.35,-0.41 -14.73,-0.09 -22.08,-0.19 z"
       id="path15"
       style="fill:#ffffff;fill-opacity:1" />
    <path
       fill="#002147"
       opacity="1"
       d="m 1430.59,86.82 c 4.59,0 9.18,0 13.78,0 0.01,38.15 0.01,76.3 0,114.46 -4.6,0 -9.19,0 -13.78,-0.01 0,-38.15 0,-76.3 0,-114.45 z"
       id="path16"
       style="fill:#ffffff;fill-opacity:1" />
    <path
       fill="#002147"
       opacity="1"
       d="m 1475.17,86.83 c 27.26,-0.02 54.51,-0.01 81.77,-0.01 -0.01,3.8 -0.01,7.61 0,11.41 -11.31,-0.01 -22.62,0.02 -33.92,-0.01 -0.04,34.35 -0.01,68.71 -0.02,103.06 -4.55,0.01 -9.1,-0.07 -13.63,0.09 -0.35,-34.39 0.05,-68.8 -0.2,-103.19 -11.33,0.12 -22.67,0.02 -34,0.05 0,-3.8 0,-7.6 0,-11.4 z"
       id="path17"
       style="fill:#ffffff;fill-opacity:1" />
    <path
       fill="#002147"
       opacity="1"
       d="m 1572.95,86.81 c 5.27,0.01 10.54,-0.08 15.82,0.07 9.18,17.87 18.7,35.56 27.95,53.4 9.58,-17.6 18.33,-35.66 27.55,-53.47 4.97,-0.02 9.95,-0.01 14.94,0 -11.87,22.62 -23.75,45.23 -35.62,67.84 -0.82,1.34 -0.77,2.92 -0.76,4.43 0.05,14.06 0.01,28.12 0.03,42.18 -4.56,0 -9.12,0.06 -13.66,-0.06 0.02,-15.05 0.24,-30.13 -0.11,-45.17 -11.77,-23.2 -24.22,-46.08 -36.14,-69.22 z"
       id="path18"
       style="fill:#ffffff;fill-opacity:1" />
    <path
       fill="#002147"
       opacity="1"
       d="m 1877.58,86.82 c 20.28,0 40.55,0 60.83,0 -0.01,3.8 -0.01,7.61 0,11.41 -15.72,0.01 -31.44,0 -47.16,0 0,12.59 0.02,25.17 -0.01,37.76 14.78,0.08 29.57,-0.1 44.36,0.08 -0.1,3.66 -0.1,7.32 -0.01,10.97 -14.78,0.22 -29.57,0.03 -44.34,0.1 0.01,18.05 0,36.09 0,54.14 -4.56,0 -9.12,0 -13.67,0 0,-38.16 0,-76.31 0,-114.46 z"
       id="path19"
       style="fill:#ffffff;fill-opacity:1" />
    <path
       fill="#002147"
       opacity="1"
       d="m 84.78,116.06 c 1.27,-8.65 9.16,-15.42 17.66,-16.55 0.5,2.13 0.91,4.28 1.3,6.43 -5.32,0.91 -10.83,4.44 -11.91,10.05 -0.73,3.52 2.88,6.78 6.32,5.87 6.41,-1.35 12.06,-5.71 18.83,-5.48 8.11,0.06 14.68,8.7 12.57,16.54 -2.23,8.44 -10.31,14.33 -18.71,15.65 -0.51,-2.13 -1.04,-4.26 -1.59,-6.38 5.11,-1.42 10.98,-3.74 12.86,-9.2 1.7,-3.97 -1.68,-9.05 -6.09,-8.57 -6.67,0.56 -12.27,5.28 -19.04,5.45 -7.09,0.3 -13.36,-6.8 -12.2,-13.81 z"
       id="path20"
       style="fill:#ffffff;fill-opacity:1" />
    <path
       fill="#002147"
       opacity="1"
       d="m 429.15,104.06 c 4.1,-2.24 9.68,1.23 9.46,5.92 0.21,4.96 -6.07,8.37 -10.11,5.48 -4.24,-2.47 -3.84,-9.43 0.65,-11.4 z"
       id="path21"
       style="fill:#ffffff;fill-opacity:1" />
    <path
       fill="#002147"
       opacity="1"
       d="m 465.44,132.58 c 4.71,-1.27 9.88,-1.3 14.44,0.59 9.86,3.9 15.94,15.93 12.34,26.09 -3.44,9.79 -13.05,16.6 -23.06,18.31 -7.68,1.38 -15.94,-1.97 -20.4,-8.39 -3.95,-5.27 -5.36,-12.46 -3.2,-18.74 2.96,-8.89 11.06,-15.33 19.88,-17.86 m 3.02,7.03 c -7.37,2.23 -14.72,7.57 -16.51,15.44 -1.83,7.7 4.93,16.13 12.96,15.46 7.83,-0.65 15.59,-5.1 19.58,-11.96 3.46,-5.87 1.31,-14.01 -4.35,-17.68 -3.42,-2.27 -7.84,-2.33 -11.68,-1.26 z"
       id="path22"
       style="fill:#ffffff;fill-opacity:1" />
    <path
       fill="#002147"
       opacity="1"
       d="m 215.48,135.48 c 0.55,-0.06 1.66,-0.18 2.22,-0.24 5.35,7.24 10.65,14.55 15.56,22.1 -2.5,0.6 -5.03,1.08 -7.54,1.64 2.8,5 6.31,9.56 9.47,14.34 4.75,-3.45 9.23,-7.29 13.48,-11.33 -1.93,-1.01 -3.93,-1.88 -5.8,-2.99 0.21,-1.37 1.57,-1.97 2.54,-2.74 4.7,-3.24 9.38,-6.52 14.03,-9.84 1.29,-0.94 2.7,-1.82 4.37,-1.83 -3.61,12.1 -7.8,24.01 -11.64,36.04 -11.92,-4.06 -24.7,-4.38 -37.17,-4.49 -11.27,0.35 -22.87,0.66 -33.59,4.53 -4.03,-11.95 -7.96,-23.93 -11.76,-35.96 3.11,-0.19 5.24,2.44 7.73,3.86 4.73,3.53 10.24,6.13 14.39,10.39 -2.01,0.94 -4.09,1.77 -5.91,3.06 3.68,4.18 8.14,7.6 12.25,11.35 3.35,-4.71 6.98,-9.31 9.56,-14.51 -2.48,-0.46 -4.96,-0.87 -7.4,-1.51 4.72,-7.52 10.2,-14.54 15.21,-21.87 z"
       id="path23"
       style="fill:#ffffff;fill-opacity:1" />
    <path
       fill="#002147"
       opacity="1"
       d="m 323.23,150.26 c 3.55,-5.03 7.14,-10.03 10.66,-15.08 3.35,-0.08 4.35,3.65 6.21,5.76 3.6,5.62 8.25,10.6 11.16,16.63 -2.43,0.43 -4.85,0.83 -7.26,1.32 2.58,5.12 6.28,9.55 9.33,14.39 4.86,-3.3 9.22,-7.31 13.55,-11.26 -1.98,-1.08 -4.02,-2.05 -6.06,-3 2.02,-2.77 5.22,-4.25 7.89,-6.28 3.85,-2.58 7.45,-5.54 11.45,-7.89 0.49,-0.01 1.45,-0.05 1.93,-0.07 -3.84,11.97 -7.84,23.89 -11.71,35.84 -11.68,-3.98 -24.2,-4.33 -36.42,-4.49 -11.56,0.27 -23.39,0.68 -34.42,4.5 -3.9,-11.96 -7.87,-23.89 -11.71,-35.86 3.52,-0.2 5.95,2.95 8.82,4.53 4.35,3.31 9.63,5.55 13.22,9.74 -2.05,0.88 -4.08,1.82 -6.05,2.88 3.98,3.73 7.88,7.59 12.11,11.03 l 0.74,-0.06 c 3.37,-4.3 6.15,-9.01 9.32,-13.45 -2.2,-1.32 -4.82,-1.39 -7.28,-1.83 0.92,-2.78 2.88,-4.99 4.52,-7.35 z"
       id="path24"
       style="fill:#ffffff;fill-opacity:1" />
    <path
       fill="#002147"
       opacity="1"
       d="m 56.95,152.97 c 2.21,-3.47 5.66,-6.56 9.96,-6.73 7.87,-0.91 16.48,6.37 14.29,14.67 3.73,-1.85 7.94,-1 11.91,-0.73 4.56,0.42 9.13,0.74 13.69,1.21 -1.45,2.26 -2.76,4.6 -3.99,6.99 -6.3,-0.32 -12.58,-1.52 -18.9,-1.27 -4.02,0.25 -5.55,4.49 -7.26,7.47 5.86,3.11 11.65,6.34 17.48,9.52 -1.2,2.21 -2.42,4.41 -3.69,6.58 -13.95,-7.67 -27.95,-15.26 -42,-22.76 2.77,-5.02 5.42,-10.12 8.51,-14.95 m 7,1.89 c -2.87,2.56 -4.35,6.24 -6.37,9.43 4.48,2.46 8.98,4.88 13.49,7.29 1.76,-3.36 4.05,-6.7 4.21,-10.62 0.11,-5.33 -6.97,-9.48 -11.33,-6.1 z"
       id="path25"
       style="fill:#ffffff;fill-opacity:1" />
    <path
       fill="#002147"
       opacity="1"
       d="m 509.58,180.32 c 1,2.68 1.9,5.39 2.82,8.09 -4.06,5.14 -8.87,9.67 -12.66,15.02 6.37,1.34 12.73,2.75 19.06,4.33 0.74,2.56 1.58,5.1 2.41,7.64 -8.75,-2.17 -17.52,-4.27 -26.29,-6.34 -6.17,7.45 -12.49,14.78 -18.55,22.33 -1.1,-2.68 -2.01,-5.43 -2.76,-8.21 4.78,-5.33 9.39,-10.8 13.99,-16.28 -6.87,-1.75 -13.88,-2.97 -20.71,-4.85 -1.53,-2.26 -1.87,-5.23 -2.87,-7.77 9.53,2.13 18.96,4.75 28.53,6.69 5.48,-7.04 11.49,-13.66 17.03,-20.65 z"
       id="path26"
       style="fill:#ffffff;fill-opacity:1" />
    <path
       fill="#002147"
       opacity="1"
       d="m 196.83,185.31 c 11.78,-1.6 23.74,-1.64 35.56,-0.53 5.22,0.65 10.6,1.2 15.42,3.44 1.5,0.45 2.85,2.58 1.01,3.57 -3.16,2.1 -7.06,2.63 -10.72,3.34 -11.97,1.8 -24.18,1.89 -36.23,0.82 -5.28,-0.57 -10.67,-1.17 -15.6,-3.23 -1.34,-0.45 -2.11,-1.68 -2.99,-2.68 3.66,-3.39 8.86,-3.89 13.55,-4.73 z"
       id="path27"
       style="fill:#ffffff;fill-opacity:1" />
    <path
       fill="#002147"
       opacity="1"
       d="m 303.52,188.43 c 5.13,-2.56 10.99,-3.05 16.6,-3.74 12.94,-1.07 26.1,-1.04 38.91,1.34 3.35,0.87 7.59,1.29 9.37,4.73 -4.04,3.31 -9.4,3.92 -14.37,4.71 -13.3,1.63 -26.84,1.62 -40.11,-0.29 -3.87,-0.79 -8.16,-1.2 -11.38,-3.71 -1.35,-0.93 -0.1,-2.58 0.98,-3.04 z"
       id="path28"
       style="fill:#ffffff;fill-opacity:1" />
    <path
       fill="#002147"
       opacity="1"
       d="m 30.01,221.8 c 2.62,-8.82 5.29,-17.63 7.84,-26.46 2.12,0.53 4.24,1.09 6.35,1.67 -1.93,6.4 -3.88,12.79 -5.82,19.18 4.28,1.09 8.52,2.3 12.78,3.48 1.72,-5.81 3.04,-11.74 5.12,-17.42 1.97,0.62 3.94,1.22 5.92,1.82 -1.63,5.77 -3.27,11.53 -4.89,17.3 4.82,1.25 9.62,2.63 14.43,3.94 1.73,-6.28 3.58,-12.52 5.28,-18.81 2.15,0.54 4.29,1.12 6.44,1.69 -2.34,8.79 -4.82,17.53 -7.22,26.3 -15.39,-4.31 -30.83,-8.42 -46.23,-12.69 z"
       id="path29"
       style="fill:#ffffff;fill-opacity:1" />
    <path
       fill="#002147"
       opacity="1"
       d="m 186.03,215.73 c 18.01,0 36.02,0.01 54.03,0 7.23,0.13 15,-0.01 21.41,3.84 7.35,4.35 10.48,13.23 10.52,21.4 0.11,33.02 -0.01,66.04 0.06,99.05 0.02,2.08 -0.08,4.16 -0.37,6.22 -2.04,-3.04 -1.37,-7.19 -3.88,-10.04 -4.29,-5.77 -12.18,-6.3 -18.77,-6.5 -20.99,-0.06 -41.98,-0.05 -62.96,-0.01 -0.08,-37.98 -0.01,-75.97 -0.04,-113.96 m 6.94,18.09 c 0.5,0.55 1.49,1.66 1.98,2.21 0.32,3.67 0.23,7.38 0.09,11.07 0.22,1.54 -1.57,2.05 -2.37,3.01 4.59,-0.15 9.69,0.82 13.8,-1.76 4.76,-2.82 4.98,-11.14 -0.33,-13.5 -4.16,-1.69 -8.8,-0.87 -13.17,-1.03 m 24.27,0.39 c -6.09,2.5 -6.69,12.37 -0.69,15.33 5.4,3.09 13.01,-1.17 12.6,-7.54 0.61,-6.17 -6.54,-10.52 -11.91,-7.79 m 13.42,-0.37 c 0.81,0.96 2.72,1.45 2.43,3.04 0.02,3.35 -0.2,6.7 -0.58,10.03 0.06,1.52 -1.41,2.25 -2.29,3.24 2.32,0.02 4.67,0.09 6.96,-0.4 -0.63,-0.36 -1.9,-1.08 -2.54,-1.44 -0.37,-3.17 -0.12,-6.37 -0.01,-9.55 2,3.53 3,7.51 4.77,11.15 0.3,-0.04 0.9,-0.11 1.2,-0.14 1.86,-3.96 2.94,-8.24 4.99,-12.11 0.09,3.56 0.07,7.13 0.02,10.7 -0.6,0.43 -1.79,1.27 -2.39,1.69 2.91,0.1 5.81,0.09 8.72,0.08 -0.52,-0.56 -1.57,-1.68 -2.1,-2.24 -0.36,-3.95 -0.47,-7.94 -0.35,-11.91 0.55,-0.55 1.65,-1.64 2.21,-2.19 -2.16,0.01 -4.31,0.02 -6.46,0.01 -1.27,3.3 -2.55,6.6 -3.79,9.91 -1.55,-3.28 -3.01,-6.6 -4.45,-9.92 -2.12,0.01 -4.23,0.02 -6.34,0.05 m 22.29,0 c 3.17,1.58 2.15,5.24 2.33,8.09 -0.18,2.88 0.84,6.5 -2.28,8.19 2.92,0.01 5.84,0.01 8.76,0.03 -0.52,-0.56 -1.56,-1.67 -2.09,-2.22 -0.3,-3.97 -0.26,-7.98 -0.02,-11.95 0.53,-0.48 1.6,-1.45 2.14,-1.94 -2.94,-0.32 -5.9,-0.3 -8.84,-0.2 m -49.85,30.1 c 0.89,1 2.71,1.5 2.79,3.03 0.35,3.8 0.11,7.62 -0.09,11.42 -0.56,0.45 -1.7,1.34 -2.26,1.79 2.36,0.15 4.73,0.14 7.08,-0.19 -5.04,-1.36 -2.46,-7.48 -3.08,-11.21 3.31,3.65 6.15,7.7 9.24,11.54 0.52,0.1 1.55,0.3 2.06,0.39 0.61,-5.08 -0.39,-10.29 0.73,-15.29 l 2.23,-0.69 c -2.23,-1.29 -4.86,-0.73 -7.3,-0.75 4.48,1.56 2.69,6.68 3.06,10.27 -2.97,-3.32 -5.65,-6.88 -8.46,-10.32 -2,0.01 -4,0 -6,0.01 m 19.22,1.12 c 4.22,4.09 3.87,11.31 7.65,15.54 l 1.11,-0.26 c 2.97,-5.34 3.3,-12.41 8.31,-16.4 -2.27,0 -4.55,0 -6.82,-0.01 0.54,0.48 1.61,1.44 2.15,1.92 -0.8,2.97 -1.89,5.85 -2.95,8.74 -1.56,-2.89 -2.6,-6.02 -3.71,-9.09 0.59,-0.37 1.79,-1.11 2.38,-1.49 -2.92,-0.07 -5.84,-0.07 -8.75,-0.18 0.15,0.3 0.47,0.92 0.63,1.23 m 20.01,-0.55 c -2.41,1.38 -3.13,5.18 -1.02,7.13 1.69,1.43 3.83,2.19 5.52,3.62 1.16,1.53 0.27,4.1 -1.79,4.13 -2.66,-0.23 -3.54,-3.19 -5.53,-4.54 0.18,1.66 0.48,3.3 0.79,4.94 2.47,0.68 5.23,1.36 7.66,0.14 2.69,-1.11 3.84,-4.71 2.33,-7.17 -1.6,-2.34 -4.85,-2.68 -6.58,-4.84 -1.01,-1.85 1.42,-3.85 3.12,-2.8 1.27,1.04 2.21,2.42 3.31,3.63 -0.13,-1.55 -0.27,-3.1 -0.42,-4.65 -2.44,-0.39 -5.16,-1.03 -7.39,0.41 m -41.27,29.74 c 0.61,0.39 1.83,1.17 2.44,1.56 0.16,4.25 0.14,8.51 0.03,12.76 -0.83,0.54 -1.65,1.08 -2.47,1.62 3.01,0.26 6.02,0.23 9.04,0.22 -0.69,-0.81 -1.64,-1.43 -2.1,-2.4 -0.31,-4.03 -0.09,-8.07 -0.05,-12.1 0.79,-0.61 1.58,-1.22 2.37,-1.85 -3.09,-0.03 -6.18,-0.04 -9.26,0.19 m 9.98,-0.08 c 0.78,0.51 1.55,1.02 2.34,1.53 0.17,4.26 0.42,8.56 -0.04,12.8 -0.59,0.42 -1.77,1.25 -2.36,1.66 4.27,0.45 8.56,0.14 12.84,0.31 0.39,-1.65 0.72,-3.3 1,-4.97 -1.74,2.3 -3.72,4.35 -6.89,3.48 -0.09,-4.02 -0.28,-8.06 -0.01,-12.08 -0.04,-1.44 1.54,-2.01 2.35,-2.92 -3.08,0.09 -6.16,0.06 -9.23,0.19 m 14.07,-0.03 c 0.79,0.58 1.58,1.17 2.37,1.76 0.05,4.06 0.26,8.13 -0.03,12.19 -0.58,0.56 -1.75,1.7 -2.33,2.27 4.28,0.05 8.56,0.05 12.85,0.03 0.3,-1.62 0.58,-3.25 0.82,-4.87 -1.72,2.27 -3.67,4.28 -6.8,3.56 -0.13,-4.04 -0.31,-8.09 -0.05,-12.12 -0.07,-1.46 1.51,-2.06 2.33,-2.98 -3.06,0.09 -6.11,0.08 -9.16,0.16 m 10.73,-0.13 c 1.01,0.98 2.32,1.79 2.84,3.19 1.84,4.35 3.39,8.83 5.09,13.25 0.47,0.07 1.43,0.23 1.9,0.3 1.9,-4.53 3.44,-9.22 5.52,-13.67 0.59,-1.34 1.91,-2.11 2.94,-3.07 -2.37,0.06 -4.74,0.05 -7.11,0.04 0.62,0.45 1.84,1.33 2.46,1.78 -1.05,3.07 -2.08,6.15 -3.12,9.22 -1.32,-3.04 -2.47,-6.15 -3.67,-9.24 0.56,-0.44 1.68,-1.33 2.24,-1.77 -3.04,0.02 -6.07,0.05 -9.09,-0.03 z"
       id="path30"
       style="fill:#ffffff;fill-opacity:1" />
    <path
       fill="#002147"
       opacity="1"
       d="m 288.21,221.2 c 5.75,-4.85 13.66,-5.28 20.84,-5.44 19.09,-0.06 38.18,-0.01 57.27,-0.02 0.04,37.95 -0.07,75.9 0.05,113.84 -18.45,0.2 -36.9,0.03 -55.36,0.09 -7.09,0.1 -14.52,-0.52 -21.25,2.19 -4.23,1.67 -7.36,5.68 -7.96,10.19 -0.53,1.22 -0.01,3.24 -1.54,3.81 -0.25,-1.28 -0.37,-2.56 -0.36,-3.86 0.06,-33.33 -0.01,-66.66 0.03,-99.99 -0.04,-7.6 2.14,-15.86 8.28,-20.81 m 2.46,12.62 c 0.85,0.66 1.64,1.38 2.37,2.17 0.14,3.63 -0.16,7.26 -0.54,10.87 0.07,1.51 -1.37,2.27 -2.24,3.28 2.14,-0.01 4.27,-0.01 6.41,0.01 l 0.05,-0.72 c -0.53,-0.29 -1.59,-0.89 -2.12,-1.18 -0.33,-3.17 -0.1,-6.36 0.05,-9.52 1.94,3.54 2.96,7.47 4.7,11.1 0.3,0 0.91,-0.02 1.21,-0.03 1.85,-3.97 2.98,-8.25 5.01,-12.14 0.08,3.57 0.08,7.14 0.01,10.71 -0.59,0.42 -1.76,1.27 -2.35,1.69 2.91,0.08 5.82,0.08 8.73,0.07 -0.53,-0.56 -1.6,-1.68 -2.13,-2.24 -0.37,-3.98 -0.45,-7.99 -0.38,-11.98 0.59,-0.52 1.77,-1.57 2.36,-2.09 -2.2,-0.01 -4.39,-0.01 -6.59,-0.02 -1.24,3.21 -2.46,6.43 -3.68,9.65 -1.82,-3.04 -3.12,-6.34 -4.47,-9.6 -2.14,-0.05 -4.27,-0.04 -6.4,-0.03 m 22.41,-0.01 c 0.5,0.58 1.51,1.74 2.01,2.33 0.25,3.9 0.26,7.85 -0.01,11.76 -0.54,0.55 -1.63,1.66 -2.17,2.22 2.98,0.01 5.96,0 8.95,0.02 -0.55,-0.55 -1.65,-1.64 -2.2,-2.19 -0.3,-3.95 -0.28,-7.94 -0.02,-11.89 0.55,-0.57 1.64,-1.69 2.18,-2.26 -2.91,0 -5.83,0 -8.74,0.01 m 9.17,0.06 c 0.97,0.67 1.87,1.43 2.69,2.28 0.44,3.26 0.27,6.57 0.17,9.85 0.26,1.84 -0.8,3.14 -2.43,3.87 2.44,0.42 4.94,0.4 7.35,-0.18 -0.75,-0.27 -2.25,-0.81 -3.01,-1.09 -0.37,-3.27 -0.41,-6.57 -0.26,-9.86 2.31,2.52 4.35,5.28 6.44,8 1.34,1.65 2.51,3.9 4.97,3.84 0.11,-4.58 -0.17,-9.17 0.19,-13.74 -0.13,-1.56 1.61,-2.07 2.47,-3.03 -2.42,-0.01 -4.83,0 -7.23,0.05 0.93,0.64 1.84,1.31 2.74,2.01 0.46,2.74 0.29,5.55 0.37,8.32 -2.94,-3.41 -5.66,-7.01 -8.57,-10.45 -1.97,0.05 -3.93,0.08 -5.89,0.13 m 17.39,16.26 c 2.27,0.01 4.54,-0.02 6.81,-0.09 -0.6,-0.38 -1.8,-1.16 -2.41,-1.55 0.35,-1.09 0.7,-2.18 1.04,-3.27 1.36,-0.03 2.72,-0.05 4.08,-0.08 0.39,1.15 0.76,2.3 1.15,3.46 -0.52,0.36 -1.57,1.08 -2.1,1.44 2.93,0.12 5.87,0.1 8.81,0.07 -1,-1 -2.33,-1.77 -2.8,-3.17 -1.86,-4.41 -3.1,-9.05 -5.03,-13.43 l -1.19,0.1 c -3.52,5.09 -3.38,12.41 -8.36,16.52 m -37.73,13.26 c -0.05,1.86 -0.09,3.72 -0.1,5.58 1.12,-2.01 2.46,-3.9 4.98,-3.99 0.12,4.49 0.12,8.99 -0.03,13.48 -0.66,0.41 -1.98,1.24 -2.64,1.66 3.31,0.22 6.63,0.22 9.94,-0.02 -0.7,-0.41 -2.11,-1.21 -2.82,-1.61 -0.15,-4.51 -0.16,-9.02 -0.01,-13.52 2.47,0.05 3.77,2.06 5.02,3.89 0.01,-1.76 -0.06,-3.52 -0.2,-5.28 -4.69,0.39 -9.49,0.79 -14.14,-0.19 m 15.67,0.61 c 0.8,0.63 1.61,1.26 2.43,1.88 -0.08,4.08 0.25,8.17 -0.16,12.24 -0.52,0.53 -1.56,1.58 -2.08,2.11 2.97,0.05 5.94,0.07 8.92,-0.08 -0.58,-0.43 -1.74,-1.31 -2.32,-1.75 -0.06,-3.84 -0.22,-7.69 0,-11.52 -0.17,-1.48 1.49,-2.01 2.26,-2.96 -3.02,0.01 -6.04,-0.01 -9.05,0.08 m 14.91,0.72 c -4.4,2.51 -5.52,9.12 -2.3,13 2.92,3.61 8.89,3.86 12.29,0.79 3.56,-3.29 3.65,-9.72 -0.02,-12.96 -2.68,-2.39 -6.9,-2.52 -9.97,-0.83 m -34.66,29.31 c 1.29,1.04 3.02,2.03 2.47,4 -0.46,4.16 0.61,9.06 -2.43,12.43 2.17,-0.05 4.4,0.15 6.51,-0.5 -4.7,-1.05 -2.14,-6.99 -2.42,-10.33 2.26,3.45 3.01,7.62 5.05,11.19 2.73,-4.02 3.71,-8.89 5.73,-13.26 -0.56,4.22 1.96,9.8 -1.99,12.85 2.85,0 5.69,-0.02 8.53,-0.06 -0.52,-0.45 -1.57,-1.33 -2.09,-1.77 -0.7,-4.18 -0.41,-8.47 -0.58,-12.7 0.86,-0.61 1.72,-1.22 2.59,-1.82 -2.28,0 -4.55,0.01 -6.82,0.06 -1.21,3.28 -2.48,6.54 -3.69,9.81 -1.66,-3.24 -3.01,-6.62 -4.56,-9.91 -2.1,0.04 -4.2,0.04 -6.3,0.01 m 22.24,0.02 c 0.57,0.48 1.71,1.42 2.29,1.9 0.05,4.05 0.27,8.11 -0.05,12.16 -0.64,0.55 -1.91,1.65 -2.55,2.2 4.48,0.13 8.97,0.12 13.46,0.05 0.27,-1.66 0.52,-3.32 0.73,-4.97 -1.06,1.1 -1.98,2.32 -3.04,3.41 -1.35,0.18 -2.71,0.27 -4.06,0.26 -0.11,-2.23 -0.15,-4.47 -0.15,-6.71 2.18,-0.05 3.67,1.31 4.79,3 0.06,-2.2 0.09,-4.4 0.05,-6.59 -1.24,1.5 -2.77,2.56 -4.79,2.63 -0.05,-2 -0.06,-3.99 -0.08,-5.97 2.78,-0.65 4.58,1.11 5.97,3.26 -0.02,-1.52 -0.04,-3.03 -0.05,-4.53 -4.18,-0.13 -8.35,-0.08 -12.52,-0.1 m 13.79,16.33 c 2.13,0.02 4.26,0.02 6.39,-0.01 -0.68,-0.61 -1.36,-1.2 -2.05,-1.78 0.34,-1.06 0.67,-2.1 1.02,-3.15 1.38,0.01 2.78,0.02 4.17,0.03 0.82,1.74 0.93,3.51 -0.42,5.02 2.73,-0.08 5.47,-0.11 8.21,-0.22 -1.15,-0.98 -2.56,-1.83 -2.99,-3.38 -1.82,-4.51 -3.21,-9.19 -5.13,-13.66 -4.86,4.56 -3.94,12.78 -9.2,17.15 z"
       id="path31"
       style="fill:#ffffff;fill-opacity:1" />
    <path
       fill="#002147"
       opacity="1"
       d="m 146.14,223.24 c 2.6,-3.77 8.99,-3.89 11.4,0.13 1.61,3.36 5.72,3.28 8.77,4.43 -0.01,-0.9 -0.02,-2.69 -0.03,-3.59 2.62,-0.01 5.25,-0.01 7.88,-0.01 0.03,40.13 -0.01,80.27 0.02,120.41 29.02,-0.03 58.04,0 87.06,-0.01 1.33,3.39 3.05,7.14 6.79,8.4 5.09,1.73 10.85,1.73 15.95,0.04 3.8,-1.21 5.6,-5 6.93,-8.44 29.11,-0.05 58.23,0.09 87.34,-0.07 -0.1,-40.11 -0.02,-80.22 -0.04,-120.33 2.62,0 5.24,0 7.86,-0.01 0.03,42.76 0.01,85.52 0.01,128.28 -30.11,0.02 -60.22,-0.04 -90.33,0.02 -4.87,8.61 -15.78,10.75 -24.85,9.27 -5.97,-0.67 -11.42,-4.14 -14.53,-9.28 -30.01,-0.01 -60.01,-0.06 -90.02,0.03 -0.07,-2.86 -0.06,-5.71 -0.06,-8.57 -2.41,0.98 -4.81,2 -7.15,3.13 -1.12,3.5 -4.37,6.56 -8.28,5.83 -4.95,-0.52 -7.89,-6.79 -5.04,-10.9 2.08,-3.54 6.78,-4.06 10.21,-2.29 3.44,-1.43 6.88,-2.89 10.28,-4.42 -0.02,-3.13 -0.02,-6.25 -0.02,-9.36 -2.33,0.7 -4.65,1.41 -6.95,2.18 -1.43,3.18 -4.66,5.88 -8.35,5.03 -5.16,-0.69 -7.76,-7.59 -4.32,-11.51 2.41,-3.26 7.15,-3.31 10.32,-1.14 3.11,-0.89 6.19,-1.84 9.29,-2.77 0.02,-3.23 0.01,-6.46 0.02,-9.69 -2.37,0.39 -4.74,0.78 -7.1,1.2 -1.76,2.68 -4.75,5.02 -8.16,4.18 -5.17,-0.75 -7.66,-7.69 -4.18,-11.57 2.68,-3.5 7.9,-3.16 10.99,-0.42 2.82,-0.44 5.63,-0.93 8.44,-1.42 0,-3.29 0,-6.59 0.01,-9.88 -2.48,0.08 -4.95,0.17 -7.42,0.29 -2.63,3.63 -8.36,4.76 -11.53,1.2 -3.91,-3.73 -1.61,-11.09 3.72,-11.94 2.99,-0.85 5.46,1.23 7.78,2.75 2.48,0.11 4.96,-0.11 7.44,-0.19 0,-3.57 0,-7.13 0.02,-10.69 -2.64,-0.15 -5.28,-0.27 -7.92,-0.34 -1.98,1.87 -4.58,3.53 -7.44,2.77 -4.64,-0.78 -7.29,-6.65 -4.73,-10.62 2.06,-3.86 7.86,-4.79 10.92,-1.58 2.32,2.58 6.09,1.42 9.15,1.85 0,-3.29 0,-6.57 0.01,-9.84 -2.9,-0.54 -5.78,-1.09 -8.69,-1.53 -2.16,1.55 -4.88,2.83 -7.55,1.8 -4.35,-1.24 -6.41,-6.98 -3.81,-10.68 2.28,-3.84 8.4,-4.5 11.2,-0.9 1.91,3.04 5.79,2.53 8.85,3.26 -0.01,-3.23 -0.01,-6.46 -0.02,-9.7 -3.12,-0.87 -6.16,-2.02 -9.32,-2.72 -2.43,0.53 -4.88,2.12 -7.42,0.99 -4.46,-1.37 -6.34,-7.42 -3.4,-11.06 z"
       id="path32"
       style="fill:#ffffff;fill-opacity:1" />
    <path
       fill="#002147"
       opacity="1"
       d="m 199.44,235.02 c 6.57,-0.62 7.63,8.65 4.23,12.58 -0.9,1.16 -3.76,2.05 -4.09,0.01 -0.44,-4.18 -0.13,-8.4 -0.14,-12.59 z"
       id="path33"
       style="fill:#ffffff;fill-opacity:1" />
    <path
       fill="#002147"
       opacity="1"
       d="m 219.24,235.11 c 2.53,-1.44 4.55,1.71 4.86,3.88 0.46,3.17 0.99,7.23 -1.42,9.75 -2.63,1.69 -4.95,-1.49 -5.31,-3.83 -0.57,-3.22 -0.97,-7.51 1.87,-9.8 z"
       id="path34"
       style="fill:#ffffff;fill-opacity:1" />
    <path
       fill="#002147"
       opacity="1"
       d="m 345.41,243.61 c 0.58,-1.55 1.18,-3.08 1.8,-4.61 0.5,1.59 1.01,3.19 1.52,4.79 -1.11,-0.06 -2.22,-0.12 -3.32,-0.18 z"
       id="path35"
       style="fill:#ffffff;fill-opacity:1" />
    <path
       fill="#002147"
       opacity="1"
       d="m 478.65,248.04 c 15.9,-1.24 31.78,-2.71 47.7,-3.84 0.52,8.78 1.4,17.54 2.06,26.31 -2.18,0.18 -4.35,0.35 -6.52,0.53 -0.51,-6.27 -1.04,-12.54 -1.51,-18.82 -4.36,0.31 -8.71,0.76 -13.08,0.93 0.22,5.97 0.91,11.91 1.33,17.86 -2.14,0.16 -4.27,0.34 -6.39,0.49 -0.44,-5.91 -0.95,-11.81 -1.43,-17.71 -7.19,0.65 -14.38,1.2 -21.58,1.73 -0.19,-2.5 -0.38,-4.99 -0.58,-7.48 z"
       id="path36"
       style="fill:#ffffff;fill-opacity:1" />
    <path
       fill="#002147"
       opacity="1"
       d="m 25.27,245.06 c 15.74,6.29 31.42,12.74 47.14,19.09 -0.09,2.63 -0.2,5.26 -0.32,7.9 -16.12,4.86 -32.26,9.66 -48.41,14.43 0.01,-2.62 0.02,-5.24 -0.01,-7.85 12.94,-3.73 25.94,-7.24 38.88,-10.96 -12.25,-5.45 -25.01,-9.73 -37.46,-14.74 0.06,-2.62 0.12,-5.25 0.18,-7.87 z"
       id="path37"
       style="fill:#ffffff;fill-opacity:1" />
    <path
       fill="#002147"
       opacity="1"
       d="m 335.31,265.18 c 1.51,-0.86 3.25,0.2 3.95,1.6 1.45,2.81 1.42,6.16 0.93,9.22 -0.2,1.68 -1.34,3.46 -3.24,3.4 -2.8,-0.66 -3.63,-3.85 -3.88,-6.33 -0.17,-2.71 -0.17,-6.11 2.24,-7.89 z"
       id="path38"
       style="fill:#ffffff;fill-opacity:1" />
    <path
       fill="#002147"
       opacity="1"
       d="m 492.42,291.53 c 11.65,-3.03 26.2,1.28 31.7,12.64 4.16,8.86 1.44,20.59 -6.69,26.24 -10.78,7.22 -26.66,4.93 -35.59,-4.27 -5.58,-5.95 -6.65,-15.24 -3.56,-22.63 2.47,-5.94 7.94,-10.42 14.14,-11.98 m 3.14,7.16 c -6.53,0.85 -12.32,6.43 -12.22,13.22 -0.51,6.36 4.9,11.31 10.48,13.22 6.24,2.29 13.75,2.78 19.58,-0.85 6.24,-3.78 8.03,-13.27 3.28,-18.91 -5.02,-6.01 -13.67,-7.75 -21.12,-6.68 z"
       id="path39"
       style="fill:#ffffff;fill-opacity:1" />
    <path
       fill="#002147"
       opacity="1"
       d="m 339.55,304.04 c 0.55,-1.65 1.13,-3.28 1.71,-4.92 0.52,1.6 1.05,3.2 1.6,4.8 -0.83,0.03 -2.48,0.09 -3.31,0.12 z"
       id="path40"
       style="fill:#ffffff;fill-opacity:1" />
    <path
       fill="#002147"
       opacity="1"
       d="m 783.6,302.73 c 35.13,-3.66 72,6.55 98.82,29.9 15.39,13.21 27.32,30.42 34.31,49.47 13.16,36.01 9.23,78.02 -10.89,110.73 -14.11,23.16 -36.31,41.1 -61.71,50.52 -40.19,14.96 -87.85,9.66 -122.89,-15.44 -23.92,-16.9 -41.2,-42.85 -47.55,-71.44 -8.35,-37.11 -0.04,-78.16 24.04,-107.92 20.78,-26.19 52.7,-42.66 85.87,-45.82 m 2.95,12.05 c -13.28,1.6 -26.14,6.74 -36.68,15 -13.23,10.26 -22.68,24.72 -28.81,40.15 -8.4,21.24 -11.16,44.4 -9.97,67.12 1,19.1 4.83,38.3 13.26,55.58 7.1,14.63 17.91,27.75 32,36.1 15.38,9.29 34.01,12.31 51.72,10.2 13.8,-1.61 27.2,-7.02 37.99,-15.82 13.04,-10.49 22.28,-25.06 28.24,-40.56 8.45,-22.06 10.92,-46.08 9.26,-69.53 -1.39,-19.22 -5.75,-38.5 -14.88,-55.58 -7.65,-14.31 -19.09,-26.9 -33.59,-34.44 -14.77,-7.85 -32.04,-10.2 -48.54,-8.22 z"
       id="path41"
       style="fill:#ffffff;fill-opacity:1" />
    <path
       fill="#002147"
       opacity="1"
       d="m 1557.66,302.83 c 35.88,-3.99 73.69,6.56 100.81,30.76 14.54,12.79 25.87,29.16 32.75,47.26 14.33,37.85 9.55,82.6 -13.14,116.22 -16.35,24.44 -41.91,42.33 -70.26,49.9 -39.23,10.66 -83.63,3.09 -115.82,-22.18 -25.13,-19.38 -41.81,-49.12 -45.5,-80.62 -4.57,-36.17 6.27,-74.53 31.21,-101.47 20.47,-22.64 49.67,-36.75 79.95,-39.87 m 3.92,11.94 c -11.18,1.36 -22.09,5.14 -31.53,11.31 -13.78,8.85 -24.11,22.29 -31.03,36.99 -8.93,19 -12.81,40.08 -13.18,60.98 -0.28,21.71 2.69,43.78 11.31,63.84 6.61,15.42 17,29.56 31.09,38.9 13.4,9.02 29.72,13.12 45.79,12.76 15.45,-0.18 30.99,-4.75 43.58,-13.85 14.24,-10.15 24.41,-25.15 30.91,-41.22 8.96,-22.26 11.66,-46.68 10.09,-70.52 -1.31,-19.56 -5.68,-39.21 -15,-56.58 -7.55,-14.11 -18.77,-26.52 -32.99,-34.09 -14.88,-8.05 -32.36,-10.52 -49.04,-8.52 z"
       id="path42"
       style="fill:#ffffff;fill-opacity:1" />
    <path
       fill="#002147"
       opacity="1"
       d="m 26.5,309.89 c 15.77,-2.23 31.51,-4.68 47.27,-6.93 0.36,2.5 0.72,5 1.08,7.5 -15.74,2.37 -31.48,4.74 -47.24,6.99 -0.37,-2.52 -0.74,-5.05 -1.11,-7.56 z"
       id="path43"
       style="fill:#ffffff;fill-opacity:1" />
    <path
       fill="#002147"
       opacity="1"
       d="m 935.79,306 c 35.37,0.01 70.74,-0.01 106.12,0.01 -0.02,2.93 -0.02,5.86 -0.03,8.79 -7.61,1.57 -15.22,3.16 -22.84,4.66 -1.92,0.49 -4.2,0.79 -5.4,2.55 -0.47,2.28 1.17,4.19 2.3,5.98 18.32,26.13 36.53,52.33 54.87,78.45 0.69,1.84 2.36,0.84 2.98,-0.44 18.81,-26.29 37.67,-52.54 56.44,-78.85 1.59,-1.77 2.44,-5.02 -0.54,-5.87 -8.02,-2.78 -16.44,-4.33 -24.65,-6.49 -0.02,-2.93 -0.02,-5.86 -0.02,-8.79 28.43,-0.01 56.86,0 85.3,0 -0.01,2.94 -0.01,5.88 -0.03,8.83 -9.54,2.64 -19.4,4.21 -28.7,7.65 -8.12,3.01 -13.2,10.29 -18.28,16.84 -21.05,26.51 -42.11,53.01 -63.13,79.54 25.06,32.96 50.06,65.96 75.1,98.94 4.04,5.87 8.97,11.52 15.86,14.02 8.21,3 16.84,4.63 25.22,7.08 0,2.9 0,5.81 0.05,8.72 -35.38,0.12 -70.77,0.01 -106.14,0.05 -0.01,-2.91 -0.01,-5.82 -0.03,-8.72 8.91,-2.09 18.06,-3.25 26.84,-5.84 3.13,-1.02 1.49,-4.56 0.07,-6.36 -17.38,-24.57 -34.84,-49.08 -52.26,-73.62 -2.96,-4.04 -5.64,-8.29 -8.88,-12.11 -18.73,25.05 -36.74,50.67 -55.19,75.94 -2.74,4.07 -6.1,7.75 -8.34,12.12 -0.95,2.6 2.38,3.57 4.21,4.2 7.43,2.02 14.96,3.63 22.4,5.63 0.01,2.93 0.01,5.87 -0.11,8.8 -28.39,-0.08 -56.77,-0.05 -85.15,-0.02 -0.04,-2.93 -0.04,-5.86 -0.02,-8.79 8.03,-1.97 16.07,-3.9 24.05,-6.07 6.38,-1.74 12.32,-5.25 16.53,-10.41 24.57,-30.64 48.93,-61.47 73.55,-92.07 -22.54,-30.23 -45.37,-60.24 -68.03,-90.39 -5.03,-6.51 -9.49,-14.19 -17.46,-17.48 -8.58,-3.47 -17.76,-5.16 -26.64,-7.69 -0.03,-2.93 -0.03,-5.86 -0.02,-8.79 z"
       id="path44"
       style="fill:#ffffff;fill-opacity:1" />
    <path
       fill="#002147"
       opacity="1"
       d="m 1229.25,306.02 c 60.89,-0.05 121.78,-0.01 182.68,-0.02 -0.01,20.16 -0.01,40.31 0,60.46 -3.38,0.01 -6.74,0.01 -10.1,0 -3.83,-12.25 -7.69,-24.49 -11.53,-36.73 -1.2,-3.73 -2.77,-7.67 -6.07,-10.03 -2.96,-2.11 -6.75,-2.27 -10.25,-2.25 -24.75,0.08 -49.51,-0.08 -74.26,0.08 0.1,34.65 0.01,69.29 0.04,103.93 17.42,0.01 34.84,0 52.27,0.01 5.04,-0.1 10.6,0.62 15.09,-2.24 3.9,-2.48 5.69,-7 6.93,-11.25 1.88,-6.46 3.74,-12.93 5.65,-19.39 3.32,0.02 6.65,0.02 9.99,-0.05 0.2,26.86 0.02,53.72 0.09,80.58 -3.36,0.01 -6.71,0.01 -10.05,0.04 -2.1,-8.03 -4.04,-16.1 -6.09,-24.14 -0.89,-3.51 -2.42,-7.09 -5.43,-9.29 -3.17,-2.45 -7.33,-2.84 -11.19,-2.86 -19.09,-0.01 -38.17,0 -57.26,0 0.02,29.67 -0.04,59.34 0.03,89.01 -0.34,4.58 2.5,9.18 7.11,10.22 10.1,2.46 20.32,4.45 30.45,6.8 0,2.88 0.01,5.77 0.11,8.67 -36.06,0.23 -72.13,0.03 -108.19,0.1 -0.01,-2.93 -0.01,-5.85 -0.01,-8.76 7.6,-1.8 15.18,-3.66 22.77,-5.49 3.51,-0.96 7.4,-1.8 9.97,-4.6 2.12,-2.38 2.17,-5.78 2.21,-8.8 -0.04,-62.65 0.03,-125.31 -0.03,-187.97 0.4,-4.59 -2.49,-8.96 -6.94,-10.2 -9.2,-2.82 -18.67,-4.69 -27.98,-7.1 0,-2.91 0,-5.82 -0.01,-8.73 z"
       id="path45"
       style="fill:#ffffff;fill-opacity:1" />
    <path
       fill="#002147"
       opacity="1"
       d="m 1726.86,306 c 31.39,0 62.79,0 94.18,0 19.09,0.01 38.61,-0.29 57.09,5.22 18.28,5.3 33.67,19.36 40.83,36.96 6.67,15.79 6.2,34.57 -2.05,49.69 -8.39,15.81 -23.84,26.79 -40.41,32.75 -4.15,1.65 -8.62,2.33 -12.67,4.21 8.59,4.59 14.43,12.57 20.44,19.97 17.64,22.46 34.64,45.41 51.91,68.16 3.96,5.25 9.75,9.1 16.22,10.44 8.33,1.77 16.63,3.67 24.95,5.49 -0.01,2.9 0,5.81 0.06,8.72 -19.82,0.09 -39.64,0.11 -59.45,-0.01 -6.49,-0.02 -10.99,-5.33 -14.49,-10.12 -18.77,-26.22 -37.51,-52.45 -56.25,-78.69 -5.64,-7.57 -11.88,-16.09 -21.67,-18.21 -9.26,-1.84 -18.77,-0.62 -28.13,-1.01 -0.07,27.5 -0.06,55 -0.01,82.5 -0.3,4.63 2.72,9.14 7.36,10.1 10.03,2.41 20.16,4.42 30.22,6.73 -0.01,2.93 -0.01,5.86 -0.03,8.79 -36.01,-0.03 -72.02,-0.05 -108.03,0.01 -0.09,-2.94 -0.09,-5.87 -0.06,-8.8 9.33,-2.4 18.84,-4.18 28.04,-7.08 4.28,-1.22 7.13,-5.38 6.84,-9.81 0.07,-63.33 0.04,-126.68 0.02,-190.01 0.33,-4.53 -2.43,-8.91 -6.88,-10.14 -9.21,-2.81 -18.69,-4.7 -28.02,-7.09 -0.02,-2.93 -0.02,-5.85 -0.01,-8.77 m 70.52,11.47 c 0.05,36.93 -0.11,73.86 0.08,110.79 10.51,-0.17 21.02,0.04 31.53,-0.11 10.43,-0.17 21.12,-1.8 30.42,-6.77 7.21,-3.81 13.26,-9.79 17.02,-17.05 5.27,-9.89 6.86,-21.29 6.91,-32.38 0.06,-12.02 -3.22,-24.29 -10.52,-33.96 -8.41,-11.29 -21.84,-18.31 -35.75,-19.74 -13.19,-1.38 -26.47,-0.56 -39.69,-0.78 z"
       id="path46"
       style="fill:#ffffff;fill-opacity:1" />
    <path
       fill="#002147"
       opacity="1"
       d="m 1996.82,306 c 30.71,0 61.43,0 92.15,0 22.76,0.03 45.81,-0.6 68.19,4.34 18.41,3.78 35.99,11.94 50.29,24.21 24.37,20.56 37.96,51.9 40.14,83.36 2.05,30.5 -4.27,62.79 -23.31,87.35 -11.13,14.39 -26.38,25.36 -43.2,32.15 -17.85,6.95 -37.13,9.1 -56.14,9.98 -42.68,0.64 -85.38,0.06 -128.06,0.32 -0.09,-2.95 -0.1,-5.88 -0.05,-8.82 9.06,-2.25 18.22,-4.21 27.21,-6.77 4.59,-1.1 8.05,-5.3 7.67,-10.11 0.09,-62.69 0,-125.38 0.05,-188.08 -0.02,-3.18 -0.05,-6.81 -2.38,-9.26 -2.45,-2.5 -5.98,-3.36 -9.23,-4.23 -7.79,-1.85 -15.54,-3.82 -23.33,-5.65 -0.02,-2.93 -0.02,-5.86 0,-8.79 m 70.53,11.46 c 0,69.19 0.01,138.38 0,207.57 0.1,2.95 -0.09,6.29 1.82,8.77 2.17,2.48 5.78,2.34 8.82,2.47 12,-0.05 24,0.09 36.01,-0.1 15.32,-0.44 30.98,-1.91 45.26,-7.9 14.75,-6.11 26.4,-18.21 33.99,-32.06 9.04,-16.59 12.82,-35.52 14.03,-54.23 1.11,-19.25 -0.01,-38.79 -4.9,-57.49 -4.24,-16.03 -11.68,-31.54 -23.31,-43.52 -9.94,-10.37 -23,-17.68 -37.14,-20.34 -24.56,-4.84 -49.73,-2.64 -74.58,-3.17 z"
       id="path47"
       style="fill:#ffffff;fill-opacity:1" />
    <path
       fill="#002147"
       opacity="1"
       d="m 33.26,345.79 c 15.07,-5.16 30.07,-10.52 45.11,-15.76 0.86,2.26 1.69,4.54 2.51,6.83 -8.74,10.55 -17.29,21.26 -26.11,31.74 10.95,-4.46 21.97,-8.84 33.02,-13.09 0.74,2.22 1.53,4.41 2.33,6.61 -14.78,5.83 -29.71,11.28 -44.46,17.2 -1,-2.28 -1.87,-4.61 -2.64,-6.97 8.68,-10.42 17.24,-20.95 25.88,-31.41 -11.11,3.75 -22.13,7.77 -33.23,11.55 -0.81,-2.23 -1.62,-4.47 -2.41,-6.7 z"
       id="path48"
       style="fill:#ffffff;fill-opacity:1" />
    <path
       fill="#002147"
       opacity="1"
       d="m 468.99,345.47 c 14.5,6.45 28.95,13.03 43.42,19.56 -3.02,6.4 -5.07,13.39 -9.43,19.06 -5.62,6.92 -18.02,4.45 -21.52,-3.42 -0.8,-1.78 -0.84,-3.75 -1.02,-5.65 -8.13,2.47 -16.8,0.92 -25.17,1.38 1.05,-2.41 2.11,-4.81 3.09,-7.24 6.24,-0.48 12.53,0.27 18.75,-0.48 4.16,-0.47 5.46,-5.01 6.88,-8.26 -6.06,-2.62 -12.02,-5.43 -18.05,-8.09 1.02,-2.28 2.03,-4.57 3.05,-6.86 m 17.53,28.52 c 0.32,5.31 7.53,8.68 11.68,5.28 2.7,-2.7 3.77,-6.51 5.47,-9.84 -4.53,-2.31 -9.24,-4.22 -13.85,-6.34 -1.41,3.5 -3.51,6.99 -3.3,10.9 z"
       id="path49"
       style="fill:#ffffff;fill-opacity:1" />
    <path
       fill="#002147"
       opacity="1"
       d="m 266.89,384.99 c 2.74,-3.64 5.05,-7.62 8.04,-11.06 2.55,-0.79 3.45,1.95 4.73,3.51 4.02,5.99 8.53,11.65 12.35,17.76 -1.15,2.34 -5.02,1.28 -7.19,2.5 3.25,4.76 6.16,9.78 9.92,14.17 4.36,-3.73 8.84,-7.32 13.08,-11.18 -1.91,-1.27 -4.01,-2.22 -6.08,-3.18 4.04,-4.33 9.53,-6.97 14.15,-10.62 2.23,-1.26 4.11,-3.88 6.88,-3.66 -3.12,12.11 -7.78,23.83 -11.32,35.84 -11.44,-3.64 -23.55,-4.28 -35.46,-4.41 -11.96,0.13 -24.1,0.75 -35.57,4.41 -3.54,-11.21 -7.31,-22.36 -10.94,-33.54 -0.75,-1.08 -0.16,-3.42 1.43,-2.14 6.79,4.46 13.63,8.89 20.14,13.76 -2.07,1.2 -4.18,2.32 -6.23,3.55 4.08,3.78 8.23,7.48 12.36,11.2 3.62,-4.49 6.67,-9.4 9.82,-14.2 -2.41,-0.78 -4.92,-1.21 -7.41,-1.6 1.8,-4.09 4.86,-7.41 7.3,-11.11 z"
       id="path50"
       style="fill:#ffffff;fill-opacity:1" />
    <path
       fill="#002147"
       opacity="1"
       d="m 84.79,387.78 c 4.3,-2.87 9.67,-5.14 14.83,-3.21 8.16,3 13.76,11.88 13.16,20.53 -0.35,5.09 -4.47,8.72 -8.3,11.55 -8.35,6.02 -16.72,12 -25.15,17.9 -1.42,-2.11 -2.86,-4.2 -4.31,-6.28 7.85,-5.53 15.64,-11.14 23.48,-16.69 2.74,-2.09 6.2,-4.08 7.04,-7.69 0.9,-6.07 -4.17,-12.9 -10.59,-12.6 -2.45,0.27 -4.52,1.74 -6.55,3.01 -8.38,5.7 -16.77,11.39 -25.16,17.06 -1.43,-2.05 -2.86,-4.11 -4.28,-6.16 8.62,-5.78 17.15,-11.72 25.83,-17.42 z"
       id="path51"
       style="fill:#ffffff;fill-opacity:1" />
    <path
       fill="#002147"
       opacity="1"
       d="m 436.77,402.92 c 3.39,-4.8 7.16,-9.31 10.83,-13.89 12.41,9.95 24.87,19.85 37.29,29.8 -5.16,6.14 -9.58,13.07 -15.99,18.01 -6.18,4.87 -15.12,4.82 -21.96,1.38 -7.36,-3.72 -13.54,-10.7 -14.65,-19.07 -0.9,-5.78 1.21,-11.55 4.48,-16.23 m 3.42,7.16 c -2.39,4.97 -0.88,11.01 2.62,15.06 4.37,5.19 11.09,9.54 18.16,7.96 6.51,-1.45 10.07,-7.63 14.2,-12.27 -9.03,-7.28 -18.03,-14.61 -27.21,-21.68 -3.08,3.24 -5.81,6.9 -7.77,10.93 z"
       id="path52"
       style="fill:#ffffff;fill-opacity:1" />
    <path
       fill="#002147"
       opacity="1"
       d="m 261.13,423.22 c 12.65,-1.06 25.49,-1.01 38.02,1.18 3.15,0.71 6.6,1.2 9.18,3.29 1.53,1.18 -0.2,2.82 -1.4,3.31 -5.28,2.4 -11.16,2.93 -16.86,3.55 -12.51,1.01 -25.2,0.92 -37.59,-1.26 -3.19,-0.75 -6.75,-1.25 -9.26,-3.54 -0.98,-1.65 0.97,-2.72 2.21,-3.28 4.97,-2.06 10.39,-2.66 15.7,-3.25 z"
       id="path53"
       style="fill:#ffffff;fill-opacity:1" />
    <path
       fill="#002147"
       opacity="1"
       d="m 243.49,506.7 c 3.96,-2.44 9.62,0.66 9.76,5.28 0.53,4.84 -5.22,8.7 -9.48,6.31 -4.64,-2.04 -4.81,-9.33 -0.28,-11.59 z"
       id="path54"
       style="fill:#ffffff;fill-opacity:1" />
    <path
       fill="#002147"
       opacity="1"
       d="m 310.36,517.51 c 4.37,-2.48 10.26,1.6 9.51,6.55 -0.32,4.84 -6.63,7.63 -10.41,4.57 -3.92,-2.61 -3.37,-9.18 0.9,-11.12 z"
       id="path55"
       style="fill:#ffffff;fill-opacity:1" />
  </g>
</svg>
