<?xml version="1.0" encoding="UTF-8" standalone="no"?>
<svg
   width="1394"
   height="391"
   viewBox="0 0 1394 391"
   fill="none"
   version="1.1"
   id="svg2"
   xml:space="preserve"
   xmlns="http://www.w3.org/2000/svg"
   xmlns:svg="http://www.w3.org/2000/svg"><defs
     id="defs2" /><path
     d="M 866.86,257.16 V 10.54 H 734.29 v 125.09 h -0.03 C 714.7,63.47 648.56,0 553.74,0 458.92,0 381.7,64.9 361.67,146.92 h -0.03 V 10.54 H 229.91 v 195.87 c 0,19.3 -2.52,31.04 -12.59,41.95 -10.07,10.91 -23.49,15.1 -36.08,15.1 -12.59,0 -26.01,-4.2 -36.08,-15.1 -10.07,-10.91 -12.59,-22.65 -12.59,-41.95 V 10.54 H 0 v 196.71 c 0,52.86 10.91,95.65 46.15,130.89 27.69,27.69 72.16,52.86 132.57,52.86 52.86,0 99.01,-18.46 132.57,-54.54 28.44,-30.11 43.48,-67.53 48.36,-100.98 h 0.03 C 377.14,322.25 454.72,391 553.73,391 641.01,391 711.9,334.26 734.28,255.3 V 379.79 H 980.96 V 257.15 H 866.85 Z M 612.27,225.72 c -8.39,22.65 -31.67,37.76 -58.52,37.76 -37.76,0 -65.66,-29.37 -65.66,-67.96 0,-38.59 27.9,-67.96 65.66,-67.96 26.85,0 50.13,15.1 58.52,37.76 h 122.02 v 60.41 H 612.27 Z"
     fill="#FAFAFA"
     id="path1"
     style="fill:#371a57;fill-opacity:1" /><path
     d="m 1393.21,257.485 h -42.93 v 122.64 h 42.93 z m -68.7,0 h -39.49 v 122.64 h 39.49 z m -68.7,0 h -36.06 v 122.64 h 36.06 z m -68.7,0 h -32.62 v 122.64 h 32.62 z m -68.7,0 h -29.19 v 122.64 h 29.19 z m -68.69,0 h -25.76 v 122.64 h 25.76 z m 145.35,-179.29 c -22.41,5.81 -39.12,25.73 -40.12,49.72 h -0.06 v 14.45 h -9.92 v 23.27 l -121.01,39.32 V 10.875 h 369.25 v 194.08 l -121.01,-39.32 v -23.27 h -9.92 v -14.45 h -0.06 c -1,-23.98 -17.71,-43.9 -40.12,-49.72 l -9.3,-34.7 h -8.45 l -9.3,34.7 z"
     fill="#FAFAFA"
     id="path2"
     style="fill:#9b3bf2;fill-opacity:1" /></svg>
